<?xml version="1.0" standalone="no"?>
<!DOCTYPE svg PUBLIC "-//W3C//DTD SVG 1.1//EN" "http://www.w3.org/Graphics/SVG/1.1/DTD/svg11.dtd" >
<svg xmlns="http://www.w3.org/2000/svg">
<metadata>Generated by IcoMoon</metadata>
<defs>
<font id="icomoon" horiz-adv-x="1024">
<font-face units-per-em="1024" ascent="896" descent="-128" />
<missing-glyph horiz-adv-x="1024" />
<glyph unicode="&#x20;" horiz-adv-x="0" d="" />
<glyph unicode="&#x78;" glyph-name="x" horiz-adv-x="1001" d="M281 543q-27-1-53-1h-83q-18 0-36.5-6t-32.5-18.5-23-32-9-45.5v-76h912v41q0 16-0.5 30t-0.5 18q0 13-5 29t-17 29.5-31.5 22.5-49.5 9h-133v-97h-438v97zM955 310v-52q0-23 0.5-52t0.5-58-10.5-47.5-26-30-33-16-31.5-4.5q-14-1-29.5-0.5t-29.5 0.5h-32l-45 128h-439l-44-128h-63q-20 0-45 1-25 0-41 9.5t-25.5 23-13.5 29.5-4 30v167h911zM163 247q-12 0-21-8.5t-9-21.5 9-21.5 21-8.5q13 0 22 8.5t9 21.5-9 21.5-22 8.5zM316 123q-8-26-14-48-5-19-10.5-37t-7.5-25-3-15 1-14.5 9.5-10.5 21.5-4h365q23 0 34 12t2 38q-5 13-9.5 30.5t-9.5 34.5q-5 19-11 39h-368zM336 498v228q0 11 2.5 23t10 21.5 20.5 15.5 34 6h188q31 0 51.5-14.5t20.5-52.5v-227h-327z" />
<glyph unicode="&#xe502;" glyph-name="dingdan" d="M316.296 417.963h391.451v-44.099h-391.451v44.099M316.296 222.574h239.486v-44.092h-239.486v44.092M793.907-61.036h-564.446c-11.718 0-23.095 2.303-33.82 6.837-10.347 4.374-19.632 10.637-27.604 18.608-7.968 7.972-14.232 17.258-18.608 27.603-4.539 10.725-6.837 22.108-6.837 33.82v587.517c0 11.719 2.298 23.095 6.837 33.82 4.374 10.347 10.637 19.632 18.608 27.604 7.973 7.971 17.258 14.234 27.604 18.613 10.725 4.532 22.101 6.833 33.82 6.833h85.518v-43.484h-85.518c-23.923 0-43.385-19.461-43.385-43.384v-587.516c0-23.924 19.461-43.386 43.385-43.386h564.446c23.924 0 43.39 19.462 43.39 43.386v587.515c0 23.924-19.466 43.384-43.39 43.384h-85.253v43.484h85.253c11.718 0 23.095-2.299 33.82-6.833 10.348-4.38 19.637-10.643 27.609-18.613 7.972-7.972 14.23-17.258 18.608-27.604 4.533-10.725 6.833-22.101 6.833-33.82v-587.516c0-11.714-2.298-23.095-6.833-33.82-4.378-10.347-10.636-19.632-18.608-27.603s-17.261-14.233-27.609-18.608c-10.725-4.533-22.102-6.837-33.82-6.837v0M728.808 569.896h-434.25v141.145c0 29.942 24.362 54.306 54.305 54.306h56.070c20.053 39.921 61.179 65.807 106.75 65.807 45.573 0 86.702-25.884 106.747-65.807h56.072c29.947 0 54.305-24.364 54.305-54.306v-141.145h0.001M338.040 613.38h347.291v97.659c0 5.968-4.856 10.824-10.827 10.824h-85.947l-5.057 14.648c-10.559 30.6-39.419 51.159-71.816 51.159s-61.258-20.559-71.817-51.159l-5.057-14.648h-85.946c-5.968 0-10.824-4.855-10.824-10.824v-97.659M338.040 613.38" />
<glyph unicode="&#xe604;" glyph-name="tupian" d="M902.646 764.334h-779.592c-53.596 0-97.454-50.391-97.454-111.985v-615.905c0-61.573 43.848-111.974 97.454-111.974h779.602c53.606 0 97.454 50.401 97.454 111.974v615.916c-0.010 61.583-43.848 111.974-97.464 111.974zM123.054 708.352h779.602c26.88 0 48.732-25.119 48.732-55.992v-519.741l-198.052 212.531-118.374-180.326-240.998 362.813-319.631-391.485v516.209c-0.010 30.874 21.842 55.992 48.722 55.992zM902.646-19.517h-779.592c-26.88 0-48.722 25.098-48.722 55.972v17.869l315.812 386.816 245.053-368.968 124.436 189.604 191.754-205.773v-19.548c-0.010-30.874-21.862-55.972-48.742-55.972zM756.48 434.371c53.811 0 97.444 53.719 97.444 119.972 0 66.263-43.633 119.982-97.444 119.982s-97.454-53.719-97.454-119.982c0-66.243 43.643-119.972 97.454-119.972zM756.48 614.339c26.87 0 48.732-26.9 48.732-59.986 0-33.075-21.862-59.976-48.732-59.976s-48.732 26.9-48.732 59.976c0 33.085 21.862 59.986 48.732 59.986z" />
<glyph unicode="&#xe611;" glyph-name="fapiao" horiz-adv-x="1364" d="M812.002 275.093h-573.040c-8.606 0-15.607-7.001-15.607-15.607v-334.735c0-29.087 24.153-52.751 53.841-52.751h496.623c29.66 0 53.789 23.664 53.789 52.751v334.735c0 8.606-7.001 15.607-15.607 15.607zM773.819-96.784h-496.623c-12.477 0-22.627 9.661-22.627 21.537v319.126h541.826v-319.127c0-11.875-10.127-21.536-22.576-21.536zM735.584-13.155h-420.204c-3.448 0-6.243-2.793-6.243-6.243v-37.244c0-3.448 2.795-6.243 6.243-6.243h420.23c3.448 0 6.243 2.795 6.243 6.243v37.244c0 3.45-2.82 6.243-6.269 6.243zM729.368-50.398h-407.745v24.758h407.745v-24.758zM735.584 61.231h-420.204c-3.448 0-6.243-2.795-6.243-6.243v0-37.244c0-3.448 2.795-6.243 6.243-6.243h420.23c3.448 0 6.243 2.795 6.243 6.243v37.244c0 3.448-2.82 6.243-6.269 6.243zM729.368 23.987h-407.745v24.758h407.745v-24.758zM735.584 135.591h-420.204c-3.448 0-6.243-2.795-6.243-6.243v0-37.193c0-3.45 2.794-6.243 6.243-6.243h420.23c3.448 0 6.243 2.793 6.243 6.243v37.193c0 3.447-2.82 6.243-6.269 6.243zM729.368 98.398h-407.745v24.706h407.745v-24.706zM864.665 656.923c-10.721 2.039-23.042 4.153-37.057 6.24v180.012c0 29.127-24.129 52.824-53.789 52.824h-496.623c-29.688 0-53.841-23.696-53.841-52.824v-180.129c-14.404-2.157-27.042-4.345-38.004-6.455-84.195-16.205-125.123-37.789-125.123-65.986v-371.902c0-29.107 24.61-52.814 54.871-52.848h78.188c8.686 0 15.752 7.001 15.752 15.607v74.385c0 8.606-7.067 15.607-15.752 15.607h-23.368v43.224h711.128v-43.197h-23.318c-8.686 0-15.752-7.001-15.752-15.607v-74.388c0-8.606 7.065-15.607 15.752-15.607h78.188c14.804 0 28.676 5.595 39.059 15.753 10.163 9.945 15.752 23.113 15.737 37.070v371.902c0.001 28.49-41.232 50.182-126.049 66.319zM952.842 203.844c-4.449-4.352-10.458-6.75-16.923-6.75h-62.438v43.174h23.319c8.686 0 15.752 7.001 15.752 15.607v74.409c0 8.606-7.065 15.607-15.752 15.607h-742.633c-8.686 0-15.752-7.001-15.752-15.607v-74.437c0-8.606 7.067-15.607 15.752-15.607h23.368v-43.172h-62.418c-12.895 0.015-23.385 9.72-23.385 21.633v371.551c2.024 4.782 24.024 20.942 99.226 35.595 55.104 10.737 154.48 23.536 314.98 23.536h39.095c158.84 0 258.261-12.57 313.694-23.114 76.272-14.509 98.481-31.081 100.486-36.017l0.001-371.567c0.006-5.546-2.256-10.817-6.371-14.843zM254.569 673.071v170.103c0 11.916 10.151 21.611 22.627 21.611h496.623c12.449 0 22.576-9.695 22.576-21.611v-170.103c-14.89 0.362-45.582 1.112-81.216 2.003-47.252 3.331-103.61 5.522-170.147 5.522h-39.095c-66.134 0-122.237-2.18-169.354-5.504-35.974-0.9-67.014-1.657-82.014-2.021zM735.584 209.978h-420.204c-3.448 0-6.243-2.793-6.243-6.243v-37.17c0-3.448 2.795-6.243 6.243-6.243h420.23c3.448 0 6.243 2.795 6.243 6.243v37.17c0 3.45-2.82 6.243-6.269 6.243zM729.368 172.807h-407.745v24.685h407.745v-24.685zM831.145 562.357c-38.494 0-69.811-30.628-69.811-68.275 0-37.618 31.317-68.225 69.811-68.225 38.467 0 69.762 30.608 69.762 68.234-0.027 37.643-31.323 68.266-69.762 68.266zM831.145 450.829c-24.725 0-44.84 19.404-44.84 43.254 0 23.878 20.115 43.304 44.84 43.304 24.68 0 44.771-19.428 44.791-43.304 0-23.851-20.094-43.254-44.791-43.254z" />
<glyph unicode="&#xe612;" glyph-name="xiugaiziliao" d="M972.8 672c-153.6-147.2-307.2-307.2-454.4-460.8l-12.8-12.8c-64-102.4-172.8-115.2-275.2-147.2-19.2-6.4-51.2 32-44.8 51.2 19.2 64 32 128 51.2 185.6 6.4 12.8 12.8 19.2 19.2 25.6 140.8 134.4 288 275.2 428.8 409.6 32 32 64 70.4 96 108.8 44.8 51.2 102.4 51.2 147.2 6.4 32-25.6 128-89.6 44.8-166.4zM742.4 684.8l-416-416 70.4-70.4c140.8 134.4 281.6 275.2 416 409.6-25.6 25.6-51.2 51.2-70.4 76.8zM774.4 742.4c32-32 64-64 102.4-96 6.4 6.4 25.6 19.2 32 32 57.6 64 51.2 57.6-12.8 121.6l-6.4 6.4c-19.2 12.8-32 12.8-51.2 0l-64-64zM256 121.6c32 12.8 57.6 25.6 76.8 32-12.8 19.2-25.6 38.4-44.8 57.6-12.8-32-19.2-57.6-32-89.6zM460.8-102.4h-275.2c-51.2 0-96 12.8-128 57.6-19.2 25.6-25.6 57.6-25.6 89.6v550.4c0 96 64 160 160 160h300.8c19.2 0 44.8 0 44.8-32-6.4-19.2-25.6-32-57.6-32h-288c-70.4 0-108.8-38.4-108.8-108.8v-531.2c0-57.6 38.4-96 89.6-96h569.6c44.8 0 76.8 32 76.8 83.2v390.4c6.4 12.8 19.2 25.6 32 25.6s19.2-19.2 25.6-32v-377.6c0-102.4-44.8-147.2-147.2-147.2h-268.8z" />
<glyph unicode="&#xe615;" glyph-name="piaojudayinji" d="M511.998 896c-282.768 0-511.998-229.228-511.998-512 0-282.77 229.23-512 511.998-512 282.772 0 512.002 229.23 512.002 512 0 282.772-229.23 512-512.002 512zM511.998-97.808c-266.094 0-481.806 215.714-481.806 481.808 0 266.096 215.712 481.808 481.806 481.808 266.1 0 481.81-215.712 481.81-481.808 0-266.094-215.71-481.808-481.81-481.808zM758.84 460h-46.764v-23.648c0-17.868-14.486-32.354-32.354-32.354h-325.686c-17.868 0-32.354 14.486-32.354 32.354v23.648h-56.522c-16.568 0-30-13.432-30-30v-196c0-16.566 13.432-30 30-30h89.61c-1.174 3.222-1.856 6.942-1.864 10.82v58.36c0 18.126 14.696 32.824 32.824 32.824h266.968c18.126 0 32.822-14.7 32.822-32.824v-58.356c0-3.796-0.678-7.43-1.864-10.824h75.184c16.568 0 30 13.434 30 30v196c0 16.57-13.432 30-30 30zM365.878 410.666h302c16.568 0 30 13.432 30 30v110c0 16.568-13.432 30-30 30h-302c-16.568 0-30-13.432-30-30v-110c0-16.568 13.432-30 30-30zM641.212 300.668h-244c-16.568 0-30-13.434-30-30v-53.336c0-16.566 13.432-30 30-30h244c16.568 0 30 13.434 30 30v53.336c0 16.566-13.43 30-30 30z" />
<glyph unicode="&#xe619;" glyph-name="chengjiao" d="M511.739-211.055c-282.058 0-511.527 229.469-511.527 511.527s229.469 511.527 511.527 511.527 511.527-229.469 511.527-511.527-229.469-511.527-511.527-511.527zM511.739 780.999c-264.967 0-480.525-215.558-480.525-480.525s215.558-480.525 480.525-480.525 480.525 215.558 480.525 480.525-215.556 480.525-480.525 480.525zM771.2 9.673c-1.373 0-2.752 0.147-4.098 0.43l-27.8 5.913c-3.673 0.782-7.028 2.578-9.715 5.201l-228.755 223.732c-1.584 1.551-3.679 2.404-5.893 2.404-2.249 0-4.36-0.872-5.948-2.457l-21.979-21.873c-1.606-1.606-2.515-3.836-2.476-6.116l0.577-35.383c0.094-5.279-1.995-10.472-5.717-14.235l-42.119-42.549c-3.744-3.781-8.735-5.864-14.059-5.864-5.318 0-10.308 2.083-14.053 5.864l-154.719 156.302c-7.599 7.671-7.599 20.156 0.006 27.831l41.577 42.007c3.689 3.726 8.813 5.864 14.059 5.864h35.831c2.238 0 4.42 0.911 5.993 2.498l126.585 127.884c1.584 1.596 2.47 3.806 2.443 6.065l-0.526 35.537c-0.078 5.279 2.011 10.458 5.727 14.208l42.041 42.477c3.744 3.781 8.741 5.864 14.059 5.864v0c5.318 0 10.314-2.083 14.059-5.864l154.712-156.296c7.589-7.677 7.589-20.16 0-27.829l-42.224-42.659c-3.689-3.726-8.813-5.866-14.063-5.866l-35.156 0.559c-2.365 0-4.549-0.908-6.12-2.496l-13.161-13.269c-3.235-3.261-3.284-8.426-0.123-11.757l221.031-232.33c2.642-2.779 4.403-6.228 5.107-9.981l5.473-29.016c1.201-6.386-0.804-12.956-5.373-17.578l-21.136-21.353c-3.699-3.73-8.825-5.868-14.069-5.868v0zM498.417 294.668c5.334 0 10.337-2.091 14.081-5.889l232.315-235.411c1.103-1.115 2.492-1.903 4.021-2.273l15.698-3.793c0.649-0.158 1.318-0.237 1.983-0.237 2.255 0 4.37 0.878 5.966 2.474 2.093 2.091 2.959 4.921 2.427 7.679l-3.041 15.73c-0.321 1.637-1.113 3.139-2.298 4.338l-233.598 235.822c-7.599 7.669-7.599 20.156-0.006 27.831l41.438 41.859c3.689 3.726 8.813 5.862 14.059 5.862l19.315-0.462c2.437 0 4.62 0.911 6.187 2.498l26.311 26.583c3.241 3.272 3.241 8.596 0 11.869l-107.11 108.198c-1.596 1.616-3.722 2.504-5.993 2.504-2.265 0-4.397-0.888-5.993-2.504l-26.133-26.399c-1.6-1.614-2.488-3.847-2.437-6.126l0.432-19.387c0.117-5.332-1.966-10.564-5.717-14.351l-142.409-143.87c-3.706-3.728-8.823-5.864-14.059-5.864h-19.968c-2.265 0-4.397-0.888-5.999-2.504l-25.707-25.973c-3.235-3.272-3.235-8.6 0-11.874l107.11-108.198c1.596-1.614 3.722-2.504 5.993-2.504 2.265 0 4.397 0.89 5.993 2.504l26.194 26.468c1.612 1.623 2.498 3.859 2.437 6.134l-0.477 19.283c-0.127 5.351 1.956 10.599 5.717 14.403l49.215 49.718c3.744 3.781 8.735 5.862 14.053 5.862zM225.372 13.559c-7.722 0-14.008 6.284-14.008 14.008v17.226c0 7.724 6.288 14.008 14.008 14.008h218.872c7.722 0 14.008-6.284 14.008-14.008v-17.226c0-7.724-6.288-14.008-14.008-14.008h-218.872z" />
<glyph unicode="&#xe61d;" glyph-name="tongzhi" d="M556.8 780.8l-236.8-140.8v-448l236.8-140.8c44.8-25.6 83.2-6.4 83.2 44.8v640c0 51.2-38.4 76.8-83.2 44.8zM64 544v-256c0-51.2 44.8-96 96-96h96v448h-96c-51.2 0-96-44.8-96-96zM928 448h-128c-19.2 0-32-12.8-32-32s12.8-32 32-32h128c19.2 0 32 12.8 32 32s-12.8 32-32 32zM908.8 121.6l-108.8 64c-12.8 6.4-32 6.4-44.8-12.8-6.4-12.8-6.4-32 12.8-44.8l108.8-64c12.8-6.4 32-6.4 44.8 12.8 6.4 12.8 0 38.4-12.8 44.8zM793.6 646.4l108.8 64c12.8 6.4 19.2 25.6 12.8 44.8-6.4 12.8-25.6 19.2-38.4 12.8l-108.8-64c-12.8-6.4-19.2-25.6-12.8-44.8 6.4-12.8 25.6-19.2 38.4-12.8z" />
<glyph unicode="&#xe623;" glyph-name="cuo" d="M1000.851-47.593l-429.238 429.245 429.23 429.23c7.848 7.843 12.702 18.681 12.702 30.652s-4.854 22.809-12.702 30.652v0c-7.844 7.844-18.679 12.695-30.648 12.695s-22.805-4.852-30.648-12.695l-429.238-429.23-429.23 429.238c-7.819 7.696-18.556 12.448-30.402 12.448-23.942 0-43.35-19.408-43.35-43.35 0-11.847 4.752-22.583 12.454-30.408l429.224-429.232-429.23-429.238c-7.848-7.844-12.703-18.683-12.703-30.656 0-23.938 19.405-43.343 43.343-43.343 0.005 0 0.011 0 0.016 0h-0.001c0.017 0 0.038 0 0.058 0 11.954 0 22.775 4.855 30.597 12.701l429.231 429.231 429.245-429.238c8.46-8.468 19.558-12.702 30.648-12.702s22.188 4.234 30.648 12.702c7.843 7.842 12.695 18.677 12.695 30.645 0 11.971-4.854 22.809-12.702 30.652v0z" />
<glyph unicode="&#xe625;" glyph-name="paiming" d="M331.051 349.873h62.409v-96.844h-62.409zM430.046 480.559h62.409v-227.53h-62.409zM527.541 416.333h62.409v-163.304h-62.409zM626.536 512.328h62.409v-259.3h-62.409zM748 576.125h-474.95c-6.627 0-12-5.373-12-12v-362.125c0-6.627 5.373-12 12-12h474.95c6.627 0 12 5.373 12 12v362.125c0 6.628-5.373 12-12 12zM726.65 232.011c0-5.529-4.654-10.011-10.396-10.011h-411.458c-5.741 0-10.396 4.482-10.396 10.011v302.103c0 5.529 4.654 10.011 10.396 10.011h411.458c5.741 0 10.396-4.482 10.396-10.011v-302.103z" />
<glyph unicode="&#xe627;" glyph-name="yonghuming" d="M809.262 524.353c0 168.269-135.674 304.646-303.058 304.646-167.389 0-303.058-136.378-303.058-304.646 0-97.159 45.397-183.481 115.838-239.255-126.315-64.728-215.225-193.607-225.072-343.379h45.329c10.63 140.255 100.079 264.426 224.913 313.794 39.664-19.177 95.088-35.805 142.050-35.805s91.258 11.048 130.923 30.222l31.093 18.335 25.179 16.834c70.469 55.773 115.862 142.095 115.862 239.254v0zM506.204 269.336c-140.125 0-253.703 114.174-253.703 255.037 0 140.824 113.578 255.018 253.703 255.018 140.12 0 253.722-114.195 253.722-255.018 0-140.863-107.972-255.037-253.722-255.037v0zM762.59 240.344l-0.221-0.322c-4.95 4.805-11.552 7.833-18.937 7.833-15.246 0-27.579-5.9-27.579-21.406 0-10.707 6.086-19.678 14.728-24.408l-0.183-0.275c82.868-60.258 124.66-151.499 132.899-260.049h55.195c-7.923 120.58-67.17 227.944-155.902 298.626v0zM762.59 240.344" />
<glyph unicode="&#xe62c;" glyph-name="dvt-draft" d="M503.963 9.954c-100.921 0-201.84-0.003-302.761 0.002-35.453 0.002-62.212 26.699-62.223 62.155-0.025 91.581-0.014 183.164 0.011 274.745 0.001 3.577-1.088 7.472 3.577 9.643 1.642 0.764 1.425 3.53 1.849 5.429 12.599 56.571 25.232 113.135 37.643 169.746 1.040 4.742 2.842 6.566 7.766 6.42 10.804-0.319 21.623-0.106 32.436-0.095 7.406 0.007 7.426 0.018 7.427 7.312 0.005 61.6 0.003 123.201 0.003 184.801 0 10.38 0.001 10.381 10.415 10.381 122.546 0 245.091-0.038 367.637 0.118 5.916 0.007 10.069-1.77 14.143-5.985 30.961-32.034 62.14-63.859 93.219-95.778 22.281-22.882 44.521-45.804 66.761-68.722 2.622-2.702 4.898-5.795 7.762-8.195 6.131-5.137 10.037-10.988 8.529-19.446-0.618-3.462 1.421-4.58 4.657-4.51 5.404 0.116 10.821-0.169 16.215 0.081 4.064 0.188 5.772-1.477 6.628-5.392 7.413-33.91 14.995-67.783 22.526-101.668 5.257-23.654 10.506-47.31 15.79-70.959 0.282-1.26 0.519-3.206 1.331-3.559 4.719-2.050 3.554-6.076 3.555-9.651 0.026-91.581-0.361-183.166 0.222-274.743 0.209-33.001-27.175-62.385-62.363-62.256-100.918 0.37-201.84 0.13-302.758 0.13zM271.92 527.23c0-54.87-0.002-109.741 0.002-164.611 0.001-7.228 0.017-7.238 7.394-7.241 25.715-0.005 51.431-0.092 77.146 0.078 4.602 0.031 6.388-1.263 6.278-6.096-0.196-8.66-0.122-17.319 0.574-26.001 2.831-35.353 16.922-65.641 42.349-89.941 33.362-31.887 73.581-45.628 119.414-38.211 54.31 8.789 91.281 40.091 111.503 91.105 6.407 16.164 8.562 33.19 8.762 50.526 0.066 5.834-2.574 13.274 1.196 17.092 3.98 4.032 11.531 1.343 17.498 1.375 28.499 0.159 56.999 0.067 85.5 0.075 6.886 0.001 6.912 0.017 6.913 6.679 0.007 49.137 0.007 98.275 0 147.413-0.001 6.702-0.025 6.719-6.871 6.72-52.578 0.005-105.154 0.001-157.732 0.005-7.493 0.001-7.505 0.015-7.505 7.67-0.004 55.69-0.001 111.378-0.004 167.068 0 7.311-0.013 7.326-7.307 7.327-99.258 0.003-198.516 0.003-297.775-0.001-7.311 0-7.328-0.020-7.33-7.406-0.004-54.541-0.002-109.083-0.002-163.626zM503.902 51.632c28.663 0 57.328 0 85.991 0 72.233 0 144.466-0.009 216.699 0.011 11.989 0.003 20.571 7.741 20.582 19.012 0.080 79.276 0.031 158.551 0.099 237.827 0.003 3.668-0.992 5.284-4.989 5.276-43.897-0.101-87.793-0.095-131.69-0.007-3.756 0.007-5.145-1.491-5.632-5.077-3.198-23.495-10.577-45.685-22.915-65.897-34.411-56.359-84.775-87.138-150.717-90.973-34.433-2.003-67.113 6.073-97.019 23.475-51.293 29.847-81.66 74.365-91.267 132.917-0.669 4.079-1.978 5.577-6.134 5.567-43.568-0.106-87.138-0.113-130.706 0.012-4.295 0.012-5.653-1.35-5.648-5.639 0.1-78.784 0.084-157.568 0.051-236.354-0.002-4.42 1.058-8.415 3.641-11.994 4.553-6.313 10.924-8.208 18.439-8.203 100.402 0.074 200.807 0.049 301.212 0.048zM626.795 669.574c-1.152-1.868-0.758-3.366-0.759-4.783-0.027-33.553 0.078-67.107-0.126-100.659-0.031-5.007 1.483-6.389 6.416-6.359 32.242 0.198 64.487 0.092 96.731 0.134 1.525 0.002 3.26-0.626 5.092 1.28-35.702 36.711-71.37 73.386-107.354 110.387zM229.691 425.329c0 21.44 0.013 42.88-0.022 64.318-0.003 1.895 0.55 4.075-1.327 5.473-3.955 2.946-11.58 0.033-12.69-4.864-2.677-11.803-5.289-23.62-7.922-35.435-6.939-31.129-13.882-62.255-20.806-93.387-1.339-6.017-1.302-6.045 4.81-6.053 10.638-0.015 21.281 0.201 31.91-0.095 4.785-0.133 6.177 1.565 6.134 6.217-0.193 21.274-0.085 42.55-0.085 63.826zM798.749 461.107c-0.214-0.091-0.427-0.182-0.641-0.273 0-33.409 0.058-66.818-0.075-100.226-0.016-4.141 1.437-5.519 5.425-5.284 4.244 0.25 8.513 0.042 12.772 0.058 6.006 0.025 6.074 0.084 4.73 6.153-3.964 17.899-7.949 35.792-11.94 53.684-3.413 15.298-6.847 30.591-10.271 45.888z" />
<glyph unicode="&#xe62d;" glyph-name="daizhifudingdan" d="M919.334 632.82v217.824c0 17.186-7.402 26.752-23.5 33.056-12.408 4.864-24.48 1.95-39.168-1.942l-814.664-248.938v-684.588c0-34.37 28.054-62.236 62.666-62.236h814.666c34.61 0 62.668 27.864 62.668 62.236v622.346c-0.002 34.372-28.058 62.242-62.668 62.242zM856.666 819.52v-186.702h-610.994l610.994 186.702zM919.334 228.29c0-17.18 0-9.726 0-31.122h-125.332c0 20.124 0 13.934 0 31.122v31.116h125.332c0-23.334 0-13.932 0-31.116zM919.334 321.642h-156.666c-17.304 0-31.332-13.934-31.332-31.118v-124.472c0-17.186 14.028-31.12 31.332-31.12h156.666v-155.576c0-17.194-14.028-31.124-31.332-31.124h-752c-17.306 0-31.334 13.93-31.334 31.124 0 0 0 569.836 0 591.23l783.332-0.008c17.304 0 31.332-13.924 31.332-31.112v-217.824z" />
<glyph unicode="&#xe638;" glyph-name="sousuo" d="M952.32-12.8l-181.76 181.76c61.44 71.68 99.84 163.84 99.84 266.24 0 225.28-184.32 409.6-409.6 409.6s-409.6-184.32-409.6-409.6 184.32-409.6 409.6-409.6c97.28 0 184.32 33.28 256 89.6l181.76-181.76c7.68-7.68 17.92-10.24 28.16-10.24s20.48 2.56 28.16 10.24c12.8 15.36 12.8 38.4-2.56 53.76zM128 435.2c0 184.32 148.48 332.8 332.8 332.8s332.8-148.48 332.8-332.8-148.48-332.8-332.8-332.8-332.8 148.48-332.8 332.8z" />
<glyph unicode="&#xe63a;" glyph-name="error-20170103" d="M511.564 891.359c-280.637 0-508.118-227.501-508.118-508.119 0-280.635 227.483-508.097 508.118-508.097 280.618 0 508.119 227.462 508.119 508.097 0 280.617-227.502 508.119-508.119 508.119zM725.953 208.943l-38.896-38.897-175.050 175.057-175.050-175.057-38.914 38.897 175.062 175.062-175.043 175.054 38.896 38.896 175.045-175.053 175.053 175.053 38.896-38.896-175.050-175.058 175.051-175.057zM511.564-125.441c-68.677 0-135.298 13.449-198.013 39.971-60.577 25.619-114.979 62.295-161.696 109.009s-83.394 101.116-109.017 161.69c-26.525 62.714-39.974 129.333-39.974 198.010 0 68.673 13.45 135.291 39.974 198.006 25.62 60.576 62.299 114.979 109.017 161.697s101.12 83.398 161.696 109.021c62.716 26.527 129.337 39.977 198.013 39.977 68.672 0 135.29-13.45 198.006-39.977 60.575-25.622 114.978-62.301 161.697-109.021 46.718-46.718 83.398-101.121 109.021-161.697 26.526-62.715 39.977-129.333 39.977-198.006 0-68.675-13.451-135.295-39.977-198.010-25.622-60.574-62.303-114.973-109.021-161.69-46.718-46.714-101.121-83.389-161.697-109.009-62.715-26.523-129.333-39.971-198.006-39.971zM511.564 890.777c-279.856 0-507.536-227.681-507.536-507.538 0-279.844 227.681-507.515 507.536-507.515 279.857 0 507.538 227.67 507.538 507.515 0 279.856-227.681 507.538-507.538 507.538zM687.057 169.222l-175.049 175.057-175.050-175.057-39.737 39.719 175.062 175.062-175.043 175.054 39.718 39.718 175.045-175.053 175.053 175.053 39.718-39.718-175.050-175.058 175.051-175.057-39.719-39.719zM298.868 208.943l38.091-38.074 175.050 175.056 175.049-175.056 38.073 38.074-175.050 175.057 175.051 175.058-38.073 38.073-175.054-175.053-175.045 175.053-38.073-38.073 175.045-175.053-175.063-175.063z" />
<glyph unicode="&#xe644;" glyph-name="star" d="M1008.056 441.438c-72.047-87.755-199.442-232.63-199.442-232.63s20.836-159.064 32.514-267.717c5.077-55.339-34.822-79.272-80.005-57.7-85.979 43.192-216.818 110.113-246.249 125.192-29.952-14.928-162.103-80.744-248.973-123.836-45.705-21.52-86.082 2.408-80.945 57.647 11.833 108.493 32.883 267.403 32.883 267.403s-128.858 144.57-201.74 232.212c-25.758 31.83-9.218 77.076 41.57 85.395 103.567 19.581 264.104 50.79 264.104 50.79s87.808 161.841 143.362 260.958c30.577 60.314 51.728 53.35 55.345 51.575 9.423-3.246 24.295-14.975 43.713-51.626 54.923-99.271 141.74-261.327 141.74-261.327s158.648-31.212 261.011-50.842c50.178-8.368 66.564-53.666 41.114-85.496z" />
<glyph unicode="&#xe645;" glyph-name="liucheng" d="M882.156-128h-740.312c-77.839 0.097-140.914 63.172-141.010 141.002v741.988c0.104 77.83 63.177 140.893 141 140.982h740.321c77.833-0.088 140.907-63.153 141.010-140.973v-741.989c-0.088-77.842-63.167-140.921-140.999-141.010h-0.009zM141.844 838.313c-45.996-0.056-83.268-37.328-83.324-83.319v-741.984c0.056-45.996 37.328-83.268 83.319-83.324h740.317c45.996 0.056 83.268 37.328 83.324 83.319v741.985c-0.056 45.996-37.328 83.268-83.319 83.324h-0.005zM566.488 707.887h-108.43c-44.917 0-81.335-34.388-81.335-76.785s36.404-76.785 81.335-76.785h108.43c44.917 0 81.335 34.388 81.335 76.785s-36.404 76.785-81.335 76.785zM566.488 605.479h-108.43c-14.94 0-27.135 11.537-27.135 25.623s12.196 25.581 27.135 25.581h108.43c14.94 0 27.135-11.537 27.135-25.581s-12.196-25.623-27.135-25.623zM566.488 451.909h-108.43c-44.917 0-81.335-34.389-81.335-76.744s36.404-76.785 81.335-76.785h108.43c44.917 0 81.335 34.346 81.335 76.785s-36.404 76.743-81.335 76.743zM566.488 349.542h-108.43c-14.94 0-27.135 11.537-27.135 25.623s12.196 25.581 27.135 25.581h108.43c14.94 0 27.135-11.537 27.135-25.581s-12.196-25.623-27.135-25.623zM566.488 196.013h-108.43c-44.917 0-81.335-34.416-81.335-76.827s36.404-76.785 81.335-76.785h108.43c44.917 0 81.335 34.388 81.335 76.785s-36.404 76.827-81.335 76.827zM566.488 93.605h-108.43c-14.94 0-27.135 11.537-27.135 25.58s12.196 25.624 27.135 25.624h108.43c14.94 0 27.135-11.537 27.135-25.623s-12.196-25.581-27.135-25.581zM268.25 144.809c-0.224-0.002-0.488-0.003-0.753-0.003-29.396 0-56.13 11.396-76.025 30.011l0.063-0.058c-20.4 19.378-31.714 45.030-31.714 72.416s11.314 53.053 31.714 72.417c19.785 18.556 46.477 29.954 75.83 29.954 0.311 0 0.622-0.001 0.932-0.004h54.182v51.204h-54.216c-89.792 0-162.63-68.762-162.63-153.57s72.81-153.571 162.63-153.571v-51.205l81.364 76.785-81.364 76.827v-51.204zM756.294 656.683h-54.243v-51.204h54.229c0.199 0.001 0.434 0.002 0.67 0.002 29.404 0 56.147-11.395 76.053-30.010l-0.063 0.058c19.505-18.077 31.682-43.822 31.714-72.411v-0.006c0-27.387-11.314-53.052-31.714-72.416-19.843-18.557-46.585-29.952-75.99-29.952-0.255 0-0.51 0.001-0.764 0.003h0.039v51.162l-81.308-76.8 81.364-76.784v51.218c89.792 0 162.63 68.762 162.63 153.57s-72.81 153.571-162.63 153.571z" />
<glyph unicode="&#xe64a;" glyph-name="kujialeqiyezhan_quanwudingzhishengchan" d="M918.4 440l-388.8 316.8c-2.778 2.387-6.419 3.841-10.4 3.841s-7.622-1.454-10.421-3.859l0.021 0.018-385.6-315.2c-15.096-10.534-24.849-27.819-24.849-47.383 0-5.927 0.895-11.644 2.558-17.025l-0.109 0.408c7.168-24.228 29.222-41.604 55.334-41.604 0.234 0 0.468 0.001 0.701 0.004h35.165v-276.8c0-32.695 26.505-59.2 59.2-59.2v0h537.6c32.695 0 59.2 26.505 59.2 59.2v0 20.8c0 8.837-7.163 16-16 16s-16-7.163-16-16v0-20.8c0-15.022-12.178-27.2-27.2-27.2v0h-537.6c-15.022 0-27.2 12.178-27.2 27.2v0 292.8c0 8.837-7.163 16-16 16v0h-51.2c-0.652-0.059-1.41-0.093-2.175-0.093-14.138 0-25.6 11.462-25.6 25.6 0 9.658 5.348 18.066 13.243 22.426l0.132 0.067 377.6 307.2 379.2-308.8c6.594-4.694 10.843-12.31 10.843-20.919 0-2.817-0.455-5.527-1.295-8.062l0.052 0.181c-3.456-10.324-13.039-17.632-24.328-17.632-0.447 0-0.892 0.011-1.334 0.034l0.062-0.003h-51.2c-8.837 0-16-7.163-16-16v0-112c0-8.837 7.163-16 16-16s16 7.163 16 16v0 96h35.2c0.343-0.007 0.746-0.012 1.151-0.012 25.527 0 47.176 16.606 54.733 39.604l0.116 0.407c1.919 5.415 3.028 11.66 3.028 18.164 0 18.878-9.341 35.574-23.654 45.719l-0.174 0.117zM747.2 420.8c2.828 2.884 4.574 6.838 4.574 11.2s-1.746 8.316-4.576 11.203l-100.797 100.797c-2.884 2.828-6.838 4.574-11.2 4.574s-8.316-1.746-11.203-4.576l0.003 0.003-64-62.4-49.6-49.6-104 104c-2.884 2.828-6.838 4.574-11.2 4.574s-8.316-1.746-11.203-4.576l-100.797-100.797c-2.828-2.884-4.574-6.838-4.574-11.2s1.746-8.316 4.576-11.203l-0.003 0.003 75.2-80c2.566-1.828 5.764-2.922 9.217-2.922 8.837 0 16 7.163 16 16 0 2.209-0.448 4.313-1.257 6.227l0.039-0.105 28.8 28.8c3.904 2.95 6.4 7.583 6.4 12.8 0 8.837-7.163 16-16 16-5.217 0-9.85-2.496-12.771-6.36l-0.029-0.040-27.2-27.2-6.4 8 30.4 30.4c1.998 2.641 3.2 5.98 3.2 9.6 0 8.837-7.163 16-16 16-3.62 0-6.959-1.202-9.64-3.229l0.040 0.029-28.8-28.8-14.4 16 78.4 78.4 91.2-91.2-169.6-169.6c-2.301-2.083-3.986-4.807-4.776-7.889l-0.024-0.111-25.6-126.4c-0.206-0.963-0.324-2.069-0.324-3.203 0-8.837 7.163-16 16-16 0.114 0 0.228 0.001 0.341 0.004h3.183l126.4 25.6 8 4.8 168 166.4 91.2-92.8-78.4-78.4-14.4 12.8 30.4 30.4c1.998 2.641 3.2 5.98 3.2 9.6 0 8.837-7.163 16-16 16-3.62 0-6.959-1.202-9.64-3.229l0.040 0.029-30.4-30.4-11.2 9.6 28.8 28.8c1.998 2.641 3.2 5.98 3.2 9.6 0 8.837-7.163 16-16 16-3.62 0-6.959-1.202-9.64-3.229l0.040 0.029-32-32c-1.224 0.336-2.629 0.529-4.079 0.529-4.729 0-8.979-2.052-11.908-5.314l-0.013-0.015c-2.828-2.884-4.574-6.838-4.574-11.2s1.746-8.316 4.576-11.203l-0.003 0.003 78.4-70.4c2.884-2.828 6.838-4.574 11.2-4.574s8.316 1.746 11.203 4.576l100.797 100.797c2.828 2.884 4.574 6.838 4.574 11.2s-1.746 8.316-4.576 11.203l-103.997 103.997 49.6 49.6zM424 144l-97.6-19.2 19.2 97.6 225.6 224 78.4-78.4zM593.6 470.4l40 40 78.4-78.4-40-40zM832 192c-8.837 0-16-7.163-16-16v0-32c0-8.837 7.163-16 16-16s16 7.163 16 16v0 32c0 8.837-7.163 16-16 16v0z" />
<glyph unicode="&#xe64d;" glyph-name="hetong" d="M843.627 832.589h-654.558c-35.207 0-47.020-11.814-47.020-47.020v-827.169c0-35.203 11.812-47.017 47.020-47.017h654.558c35.243 0 47.017 11.814 47.017 47.017v827.169c0 35.207-11.768 47.020-47.017 47.020zM863.802-37.228c0-11.757-9.504-21.261-21.254-21.261h-653.975c-11.75 0-21.258 9.504-21.258 21.261v820.056c0 11.752 9.507 21.258 21.258 21.258h653.975c11.757 0 21.254-9.507 21.254-21.258v-820.056zM304.691 716.663h425.117v-22.081h-425.117v22.081zM304.691 608.6h425.117v-22.084h-425.117v22.084zM304.691 503.188h425.117v-22.084h-425.117v22.084zM552.886 386.888c32.377-15.675 34.545-11.15 34.545-11.15h142.38v22.041h-224.082c0 0.002 15.108 1.024 47.163-10.888l-0.006-0.003zM430.671 375.995c-108.398 0-185.355-76.901-185.355-185.345 0-108.404 76.958-185.355 185.355-185.355 108.415 0 185.35 76.953 185.35 185.355 0.006 108.442-76.935 185.345-185.35 185.345zM430.671 20.933c-93.745 0-169.716 76.015-169.716 169.71 0 93.745 75.97 169.716 169.716 169.716 93.717 0 169.71-75.976 169.71-169.716 0.006-93.694-75.994-169.71-169.71-169.71zM446.889 276.713c4.675-13.399 18.141-51.622 18.141-51.622s38.803 0.107 57.887 0c12.591-0.068 17.054-7.851 6.255-16.621-10.798-8.783-47.078-38.014-47.078-38.014s13.858-43.595 17.709-55.72c3.849-12.103-4.61-17.554-12.529-11.876-7.917 5.689-49.496 35.209-49.496 35.209s-39.954-28.596-49.195-35.209c-9.243-6.614-16.053 1.515-12.958 11.24 3.095 9.714 17.923 56.351 17.923 56.351s-39.301 31.683-47.384 38.195c-8.079 6.511-8.333 16.81 4.843 16.662 13.171-0.141 59.386 0 59.386 0s13.608 38.78 17.923 51.399c4.683 13.676 13.896 13.391 18.575 0l-0.002 0.005zM437.776 276.276c0 0-19.108-53.7-19.928-55.935-0.829-2.231-3.241-3.997-5.831-3.997-1.908 0-61.55 0-61.55 0s46.759-37.753 49.241-39.626c2.912-2.196 3.497-4.792 2.591-7.665-0.911-2.867-18.468-58.52-18.468-58.52s48.198 34.494 50.537 36.062c1.978 1.334 4.714 1.379 6.801-0.107 2.094-1.481 50.645-35.951 50.645-35.951s-17.783 56.050-18.684 58.633c-0.825 2.373-0.216 5.358 1.731 6.801 1.794 1.334 50.202 40.494 50.202 40.494s-58.807 0.073-61.646 0.107c-2.848 0.034-4.563 0.978-5.723 3.775-0.749 1.811-19.913 55.935-19.913 55.935l-0.005-0.005z" />
<glyph unicode="&#xe651;" glyph-name="mima-copy" d="M763.43 542.553h-480v91.32c0 114.96 97.14 205.020 221.4 205.74 121.44-0.66 212.88-88.8 212.88-205.74v-45.72c0-12.6 10.2-22.86 22.86-22.86s22.86 10.2 22.86 22.86v45.72c0 142.44-110.34 250.020-257.1 251.4h-2.94c-149.16-1.38-265.68-111.3-265.68-251.4v-93.72c-77.34-11.28-137.16-77.34-137.16-157.68v-297.12c0-88.32 71.76-160.020 160.020-160.020h502.86c88.32 0 160.020 71.7 160.020 160.020v297.12c0 88.26-71.82 160.080-160.020 160.080v0zM877.73 85.413c0-63.060-51.24-114.3-114.3-114.3h-502.86c-63.060 0-114.24 51.24-114.24 114.3v297.12c0 63.060 51.24 114.24 114.24 114.24h502.86c63.12 0 114.3-51.24 114.3-114.24v-297.12zM511.97 405.393c-75.6 0-137.16-61.5-137.16-137.16 0-67.92 49.8-124.080 114.78-134.82-0.060-0.84-0.48-1.44-0.48-2.28v-68.58c0-12.66 10.2-22.92 22.86-22.92s22.86 10.26 22.86 22.92v68.58c0 0.84-0.42 1.44-0.48 2.28 64.98 10.74 114.78 66.9 114.78 134.82 0 75.66-61.5 137.16-137.16 137.16v0zM511.97 176.793c-50.4 0-91.44 41.1-91.44 91.38 0 50.46 41.1 91.38 91.44 91.38s91.32-41.040 91.32-91.38c0.12-50.34-40.92-91.38-91.32-91.38v0z" />
<glyph unicode="&#xe657;" glyph-name="bianji" d="M313.984 44.288l-246.976-45.888 49.792 244.16 197.184-198.272zM701.44 830.656l-88.512-88.96 197.184-198.336 88.512 88.96-197.184 198.336zM161.024 287.040l197.184-198.336 407.744 410.112-197.184 198.4-407.744-410.176zM384 64h128v-128h-128zM580.032 64h128v-128h-128zM772.032 64h126.656v-128h-126.656z" />
<glyph unicode="&#xe661;" glyph-name="zixun" d="M775.359 326.068c20.003 39.477 30.144 81.459 30.144 124.778 0 43.303-10.143 85.274-30.144 124.745-19.151 37.795-46.479 71.663-81.225 100.667-70.64 58.966-164.312 91.44-263.762 91.44-99.448 0-193.118-32.474-263.758-91.44-34.746-29.004-62.074-62.872-81.225-100.667-20.001-39.471-30.143-81.442-30.143-124.758 0.046-76.812 32.899-150.828 92.525-208.504 1.162-2.208 7.244-16.453 5.812-70.464-0.843-31.799-3.898-60.779-3.944-61.214l-5.064-47.404 39.891 26.107c0.25 0.164 25.273 16.512 53.646 32.602 46.889 26.591 62.996 29.861 66.379 30.26 40.311-12.108 82.652-18.247 125.88-18.247 99.457 0 193.13 32.47 263.762 91.427 34.747 29.002 62.077 62.873 81.226 100.672zM430.371 179.139c-39.339 0-77.804 5.644-114.324 16.772-3.33 1.015-6.979 1.53-10.849 1.53-11.9 0-32.823-4.119-89.455-36.243-6.176-3.504-12.162-6.994-17.782-10.333 0.388 7.568 0.704 15.663 0.874 23.931 1.443 70.072-8.851 89.605-19.107 99.467-51.105 49.175-79.272 111.89-79.311 176.583 0 149.806 148.017 271.681 329.954 271.681 181.94 0 329.959-121.876 329.959-271.681 0.002-149.82-148.018-271.706-329.958-271.706zM966.419 389.728c0 45.414-11.114 89.257-33.037 130.31-20.986 39.298-50.765 74.043-88.512 103.272-9.864 7.636-24.048 5.832-31.685-4.030s-5.832-24.049 4.030-31.686c32.678-25.303 58.356-55.191 76.322-88.834 18.39-34.435 27.713-71.12 27.713-109.019-0.038-64.705-28.204-127.422-79.298-176.583-10.265-9.86-20.564-29.386-19.121-99.459 0.17-8.265 0.488-16.359 0.874-23.926-7.031 4.177-14.638 8.592-22.465 12.969-18.893 10.563-35.178 18.706-48.408 24.204-21.661 9.001-35.784 11.354-47.214 7.866-36.497-11.129-74.961-16.772-114.323-16.772-19.173 0-38.392 1.369-57.123 4.070-12.343 1.776-23.796-6.786-25.577-19.131-1.779-12.345 6.786-23.797 19.131-25.577 20.858-3.007 42.245-4.533 63.569-4.533 43.249 0 85.594 6.14 125.883 18.248 3.388-0.4 19.493-3.67 66.379-30.257 28.371-16.089 53.392-32.437 53.642-32.6l39.893-26.11-5.064 47.407c-0.032 0.287-3.078 29.072-3.938 60.93-1.461 54.218 4.635 68.506 5.8 70.72 59.63 57.673 92.485 131.689 92.529 208.521zM250.264 499.125c-23.821-0.133-43.053-19.544-42.965-43.363 0.132-23.818 19.541-43.079 43.361-42.966 23.821 0.107 43.053 19.495 42.965 43.363-0.087 23.799-19.54 43.073-43.361 42.966zM431.166 499.125c-23.819-0.133-43.099-19.544-42.966-43.363 0.089-23.818 19.498-43.079 43.319-42.966 23.821 0.107 43.055 19.495 42.966 43.363-0.088 23.799-19.499 43.073-43.319 42.966zM602.808 499.125c-23.819-0.133-43.053-19.544-42.965-43.363 0.132-23.818 19.497-43.079 43.319-42.966 23.864 0.107 43.097 19.495 42.965 43.363-0.088 23.799-19.499 43.073-43.319 42.966z" />
<glyph unicode="&#xe662;" glyph-name="money" d="M511.993 392.562c-6.076 0-12.153 2.32-16.791 6.957-9.277 9.279-9.277 24.307 0 33.585l147.323 147.324c9.276 9.277 24.307 9.277 33.584 0s9.277-24.307 0-33.585l-147.323-147.325c-4.639-4.638-10.714-6.956-16.792-6.956zM511.993 392.562c-6.076 0-12.153 2.32-16.791 6.957l-147.324 147.336c-9.276 9.276-9.276 24.307 0 33.583 9.277 9.279 24.307 9.279 33.584 0l147.324-147.334c9.276-9.278 9.276-24.306 0-33.585-4.639-4.639-10.714-6.957-16.792-6.957zM511.993 130.419c-13.115 0-23.749 10.633-23.749 23.75v262.143c0 13.116 10.634 23.75 23.749 23.75 13.116 0 23.751-10.634 23.751-23.75v-262.142c0-13.118-10.635-23.751-23.751-23.751zM660.723 392.562h-297.456c-13.116 0-23.75 10.634-23.75 23.75s10.634 23.75 23.75 23.75h297.456c13.115 0 23.749-10.634 23.749-23.75s-10.634-23.75-23.749-23.75zM660.723 282.218h-297.456c-13.116 0-23.75 10.635-23.75 23.752 0 13.115 10.634 23.75 23.75 23.75h297.456c13.115 0 23.749-10.635 23.749-23.75 0-13.117-10.634-23.752-23.749-23.752zM511.993-54.246c-242.219 0-439.281 197.051-439.281 439.27 0 242.221 197.063 439.27 439.281 439.27 242.232 0 439.293-197.049 439.293-439.27 0-242.219-197.061-439.27-439.293-439.27zM511.993 776.793c-216.033 0-391.781-175.748-391.781-391.77 0-216.021 175.748-391.77 391.781-391.77s391.793 175.749 391.793 391.77c0 216.022-175.76 391.77-391.793 391.77z" />
<glyph unicode="&#xe66b;" glyph-name="fangda" d="M977.216-13.056l-166.4 166.464c59.721 73.868 95.872 168.939 95.872 272.454 0 0.155 0 0.311 0 0.466v-0.024c0 0.019 0 0.041 0 0.064 0 241.556-195.82 437.376-437.376 437.376s-437.376-195.82-437.376-437.376c0-241.556 195.82-437.376 437.376-437.376 0.023 0 0.045 0 0.068 0h-0.004c0.157 0 0.342 0 0.528 0 103.837 0 199.172 36.403 273.938 97.144l-0.802-0.631 166.336-166.336c8.83-9.107 21.177-14.76 34.845-14.76 13.224 0 25.212 5.291 33.962 13.871l-0.008-0.008c8.485 8.745 13.715 20.689 13.715 33.854 0 13.644-5.617 25.975-14.666 34.808l-0.010 0.009zM128.064 426.24c0 188.501 152.811 341.312 341.312 341.312s341.312-152.811 341.312-341.312v0c0-188.519-152.825-341.344-341.344-341.344s-341.344 152.825-341.344 341.344v0zM627.52 468.352h-116.032v115.904c0 23.872-18.88 43.328-42.112 43.328s-42.112-19.456-42.112-43.328v-115.968h-115.968c-0.154 0.002-0.335 0.003-0.517 0.003-23.423 0-42.453-18.808-42.811-42.145v-0.034c0-23.296 19.456-42.048 43.328-42.048h115.968v-115.968c0-23.872 18.88-43.392 42.112-43.392s42.112 19.52 42.112 43.392v115.968h115.968c0.154-0.002 0.336-0.003 0.518-0.003 23.4 0 42.416 18.772 42.81 42.078v0.037c-0.323 23.364-19.338 42.179-42.748 42.179-0.181 0-0.362-0.001-0.543-0.003h0.027z" />
<glyph unicode="&#xe66c;" glyph-name="naozhong3" d="M643.197 328.394l-118.953 65.002v212.846c0 12.153-4.948 22.284-17.36 22.284-12.501 0-17.36-9.976-17.36-22.284v-222.186c0-13.393 15.837-25.372 19.406-27.41l114.861-61.639c10.589-6.046 21.35-4.101 27.557 6.531 6.25 10.707 2.568 20.736-8.15 26.857zM512 828.592c-248.27 0-449.532-199.050-449.532-444.592 0-245.54 201.262-444.592 449.532-444.592 248.268 0 449.532 199.051 449.532 444.592s-201.264 444.592-449.532 444.592zM512-26.365c-223.443 0-414.811 189.379-414.811 410.365 0 220.988 191.368 410.365 414.811 410.365s414.811-189.377 414.811-410.365c0-220.986-191.37-410.365-414.811-410.365z" />
<glyph unicode="&#xe670;" glyph-name="xinjianrenwu" d="M995.146 84.553h-118.857l0.073 118.857c0 15.148-12.28 27.429-27.429 27.429s-27.429-12.28-27.429-27.429v0l-0.073-118.857h-118.857c-15.148 0-27.429-12.28-27.429-27.429s12.28-27.429 27.429-27.429v0h118.857v-118.857c0-15.148 12.28-27.429 27.429-27.429s27.429 12.28 27.429 27.429v0 118.857h118.857c15.148 0 27.429 12.28 27.429 27.429s-12.28 27.429-27.429 27.429v0zM646.876-64.841h-554.533c-0.066 0-0.145-0.001-0.224-0.001-20.359 0-36.864 16.505-36.864 36.864 0 0.193 0.001 0.386 0.004 0.578v-0.029 277.065c0 0.033 0 0.072 0 0.11 0 20.525 16.576 37.178 37.072 37.302h182.796c24.869-105.765 119.954-184.649 233.143-184.649 112.794 0.117 207.351 78.055 232.879 183.008l0.337 1.641h181.906v54.235l0.439 0.622h-0.402v461.861c0 0.054 0 0.119 0 0.183 0 50.838-41.212 92.050-92.050 92.050-0.013 0-0.026 0-0.039 0h-646.873c-50.883-0.021-92.123-41.274-92.123-92.16 0-0.026 0-0.051 0-0.077v0.004-461.824h-0.402c-50.791-0.062-91.941-41.251-91.941-92.050 0-0.077 0-0.154 0-0.231v0.012-277.065c-0.001-0.119-0.001-0.261-0.001-0.402 0-50.757 41.147-91.904 91.904-91.904 0.013 0 0.026 0 0.040 0h554.933c15.148 0 27.429 12.28 27.429 27.429s-12.28 27.429-27.429 27.429v0zM147.639 803.767c0 20.59 16.713 37.376 37.266 37.376h646.839c20.517 0 37.303-16.75 37.303-37.376v-461.824h-176.421c0-0.011 0-0.024 0-0.037 0-101.959-82.654-184.613-184.613-184.613-0.013 0-0.026 0-0.038 0h0.002c-0.011 0-0.024 0-0.037 0-101.986 0-184.665 82.666-184.686 184.647v0.002h-175.616v461.824zM323.584 637.733h369.408c15.148 0 27.429 12.28 27.429 27.429s-12.28 27.429-27.429 27.429v0h-369.408c-15.148 0-27.429-12.28-27.429-27.429s12.28-27.429 27.429-27.429v0zM508.27 453.083c15.148 0 27.429 12.28 27.429 27.429s-12.28 27.429-27.429 27.429h-184.649c-15.148 0-27.429-12.28-27.429-27.429s12.28-27.429 27.429-27.429h184.649z" />
<glyph unicode="&#xe67a;" glyph-name="daibanshixiang" d="M513.661 786.713c226.359 0 410.524-181.472 410.524-404.575 0-223.143-184.165-404.643-410.524-404.643-226.403 0-410.565 181.5-410.565 404.643 0 223.103 184.162 404.575 410.565 404.575M513.661 809.645c-239.571 0-433.791-191.425-433.791-427.507 0-236.162 194.22-427.549 433.792-427.549 239.569 0 433.789 191.387 433.789 427.549-0.001 236.082-194.221 427.507-433.79 427.507zM603.154 158.568h-251.527c-35.862 0-65.044 29.188-65.044 65.051v319.479c0 36.024 29.182 65.333 65.044 65.333h286.794c36.031 0 65.345-29.309 65.345-65.333v-176.911c0-6.916-5.596-12.497-12.496-12.497-0.004 0-0.008 0-0.013 0-6.894 0-12.483 5.589-12.483 12.483 0 0.005 0 0.010 0 0.015v-0.001 176.911c0 22.243-18.104 40.341-40.353 40.341h-286.794c-22.088 0-40.051-18.098-40.051-40.341v-319.479c0-22.096 17.963-40.059 40.051-40.059h251.527c6.906 0 12.496-5.599 12.496-12.498-0.002-6.897-5.589-12.494-12.496-12.494zM603.154 329.739h-215.967c-6.899 0-12.496 5.597-12.496 12.496 0 6.913 5.597 12.496 12.496 12.496h215.967c0.004 0 0.008 0 0.012 0 6.895 0 12.484-5.589 12.484-12.484 0-0.004 0-0.008 0-0.013v0.001c-0.002-6.899-5.589-12.496-12.496-12.496zM475.002 246.528h-87.808c-0.003 0-0.007 0-0.011 0-6.895 0-12.485 5.59-12.485 12.485 0 0.005 0 0.009 0 0.014v-0.001c0 6.897 5.589 12.494 12.496 12.494h87.808c6.899 0 12.496-5.597 12.496-12.494 0.001-6.915-5.597-12.498-12.496-12.498zM603.154 412.965h-215.967c-6.899 0-12.496 5.593-12.496 12.496s5.597 12.496 12.496 12.496h215.967c6.906 0 12.496-5.593 12.496-12.496-0.002-6.903-5.589-12.496-12.496-12.496zM603.154 496.187h-215.967c-6.899 0-12.496 5.593-12.496 12.497s5.597 12.496 12.496 12.496h215.967c6.906 0 12.496-5.593 12.496-12.496s-5.589-12.497-12.496-12.497zM610.305 250.693c0-13.815 11.178-24.992 24.992-24.992 13.798 0 24.993 11.177 24.993 24.992 0 13.798-11.195 24.992-24.993 24.992-13.815 0.001-24.992-11.194-24.992-24.992zM686.159 250.693c0-13.815 11.188-24.992 24.992-24.992 13.809 0 24.995 11.177 24.995 24.992 0 13.798-11.187 24.992-24.995 24.992-13.803 0.001-24.992-11.194-24.992-24.992zM534.132 250.693c0-13.815 11.186-24.992 24.992-24.992s24.992 11.177 24.992 24.992c0 13.798-11.186 24.992-24.992 24.992s-24.992-11.194-24.992-24.992z" />
<glyph unicode="&#xe689;" glyph-name="daijiedan" d="M328.485 274.213h104.082c5.998 0 10.862-4.864 10.862-10.862l-0.439-14.555c0 0 0 0 0 0 0-5.986-4.842-10.841-10.823-10.862h-104.084c-5.999 0-10.862 4.863-10.862 10.862v0l0.402 14.555c0 5.998 4.864 10.862 10.862 10.862zM318.245 563.858c-1.944-1.956-3.145-4.652-3.145-7.629 0-0.018 0-0.036 0-0.054v0.003l1.097-15.177c0-5.998 4.864-10.862 10.862-10.862h342.674c5.983 0.021 10.825 4.876 10.825 10.862 0 0 0 0 0 0v0l-1.097 15.177c0 0.011 0 0.024 0 0.037 0 5.979-4.847 10.825-10.825 10.825-0.013 0-0.026 0-0.039 0h-342.672c-0.004 0-0.009 0-0.014 0-2.995 0-5.706-1.216-7.665-3.181v0zM218.331 684.654c0.256 28.891 0 28.014 29.623 28.891h499.090c27.392-1.28 27.831 0 27.392-28.891v-173.495h37.376v195.182c0 23.991-19.383 43.374-43.374 43.374h-542.208c-23.954 0-43.374-19.383-43.374-43.374v-607.232c0-23.954 19.419-43.374 43.374-43.374h238.555l0.256 35.84h-216.869c-29.879-1.097-29.989 0-29.879 28.709v564.37zM873.911 241.554c0-100.989-81.868-182.857-182.857-182.857s-182.857 81.868-182.857 182.857v0c0 100.989 81.868 182.857 182.857 182.857s182.857-81.868 182.857-182.857v0zM837.339 241.554c0 80.791-65.494 146.286-146.286 146.286s-146.286-65.494-146.286-146.286v0c0-80.791 65.494-146.286 146.286-146.286s146.286 65.494 146.286 146.286v0zM694.857 238.19v54.565c0 0.011 0 0.025 0 0.038 0 9.978-8.089 18.066-18.066 18.066-0.077 0-0.154 0-0.231-0.001h0.012c-9.801 0-18.286-8.119-18.286-18.103v-54.565h-0.658v-36.571h0.658v-0.475h36.571v0.475h54.382c10.24 0 18.103 8.155 18.103 18.286 0 9.801-8.119 18.286-18.103 18.286h-54.382zM328.777 438.747c0 0 0 0 0 0-5.979 0-10.825-4.847-10.825-10.825 0-0.013 0-0.026 0-0.039v0.002l-0.037-14.885c0-5.961 4.864-10.825 10.862-10.825h169.143c0 0 0 0 0 0 5.986 0 10.841 4.842 10.862 10.823v14.887c0 0.011 0 0.024 0 0.037 0 5.979-4.847 10.825-10.825 10.825 0 0 0 0 0 0h-169.143z" />
<glyph unicode="&#xe6ac;" glyph-name="shouru" horiz-adv-x="1448" d="M966.605 253.572h-41.954v-83.932h-83.93v-42.007h83.93v-83.889h41.954v83.889h83.949v42.007h-83.949zM945.579 421.666c-150.334 0-272.807-122.437-272.807-273.024 0-150.5 122.473-273.015 272.807-273.015 150.531 0 272.919 122.514 272.919 273.015 0.002 150.586-122.387 273.024-272.919 273.024zM945.579-72.847c-122.012 0-221.278 99.369-221.278 221.491s99.268 221.49 221.278 221.49c122.067 0 221.39-99.369 221.39-221.49s-99.323-221.491-221.39-221.491zM561.247 237.565h-118.715c-19.361 0-35.059-14.135-35.059-31.524 0-17.278 15.699-31.425 35.059-31.425h118.715c19.361 0 35.075 14.147 35.075 31.425 0 17.391-15.714 31.524-35.075 31.524zM799.204 657.233c-19.347 0-35.016-14.133-35.016-31.495 0-17.321 15.669-31.461 35.016-31.461h118.699c19.361 0 35.114 14.14 35.114 31.461 0 17.355-15.754 31.495-35.114 31.495h-118.699zM595.188 512.882c27.47-0.153 54.799 0 82.255 0.769 15.124 0.454 24.253 11.617 23.653 27.202-0.743 19.571-15.869 34.696-34.655 34.696-24.239 0-48.48-0.146-72.718 0-2.503 0-6.908-1.216-6.752 2.293 0.139 8.709-3.229 17.734 4.404 25.836 26.434 27.666 52.144 55.944 78.144 84.065 3.37 3.669 6.769 7.491 9.394 11.77 9.843 15.441 2.795 33.781-14.675 38.059-12.346 3.062-22.185-2.293-30.7-10.694-24.239-23.689-48.48-47.39-72.427-71.538-4.111-4.123-5.871-3.671-9.547 0.461-20.271 22.772-40.973 45.245-61.397 67.862-7.787 8.563-16.748 14.678-28.056 16.972-12.346 2.446-22.48-3.662-26.142-16.203-4.417-14.98 2.193-26.751 11.448-37.299 22.044-25.218 43.922-50.899 66.694-75.357 8.374-9.017 12.036-18.195 10.875-30.42-0.447-5.353-1.62-6.877-6.767-6.877-25.707 0.301-51.417-0.146-77.124 0.301-8.217 0.155-13.937-3.046-18.802-9.47-3.662-4.887-6.163-10.393-8.080-16.201-6.891-21.865 3.495-41.096 25.708-41.096 26.911 0 51.862 4.251 77.851 4.565 4.11 0.146 7.060 0 6.919-5.809-0.31-18.802-0.31-37.765-0.153-56.56 0-4.431-1.469-5.654-5.579-5.654-14.259 0.308-28.364 0.155-42.611 0.155h-40.093c-16.454-0.155-28.937-12.686-28.782-29.049 0.139-17.419 12.623-30.413 29.231-30.413 26.868 0 53.89 0 80.772 0.146 4.712 0 6.473-1.223 6.318-6.415-0.153-9.47 0-18.943 0.743-28.277 1.467-18.805 13.81-29.649 32.182-29.19 16.438 0.461 29.075 13.892 29.369 31.788 0.139 7.954 0.433 15.9-0.447 23.691-0.741 7.178 1.469 8.716 7.94 8.57 26.728-0.317 53.304 0 80.046-0.17 8.806 0 15.726 3.215 20.857 10.557 7.211 10.24 8.819 21.396 3.97 33.174-4.837 11.462-14.384 15.279-25.567 15.893-2.921 0.146-5.871 0.146-8.807 0.146-23.794 0-47.447 0.162-71.237-0.146-5.145 0-6.614 1.679-6.475 7.032 0.294 17.273 0.604 34.696 0.155 51.967-0.155 7.192 2.054 8.869 8.666 8.869zM701.208-30.403h-343.5c-41.044 0-74.44 33.41-74.44 74.452v722.794c0 41.044 33.396 74.44 74.44 74.44h645.089c41.044 0 74.442-33.396 74.442-74.44v-350.161c0-14.231 11.531-25.767 25.763-25.767s25.765 11.534 25.765 25.767v350.161c0 69.463-56.503 125.969-125.969 125.969h-645.091c-69.463 0-125.969-56.507-125.969-125.969v-722.794c0-69.479 56.507-125.982 125.969-125.982h343.5c14.231 0 25.767 11.549 25.767 25.777-0.003 14.233-11.536 25.753-25.767 25.753z" />
<glyph unicode="&#xe6c0;" glyph-name="type" d="M489.714 507.635c0-56.246-45.635-101.881-101.881-101.881h-251.51c-56.245 0.531-101.881 46.166-101.881 101.881v252.043c0 56.245 45.635 101.882 101.881 101.882h251.51c56.245 0 101.881-45.636 101.881-101.882v-252.043zM431.342 759.677c0 23.881-19.099 42.983-42.978 42.983h-252.043c-23.879 0-42.982-19.103-42.982-42.983v-252.042c0-23.881 19.103-42.978 42.982-42.978h251.51c23.879 0 42.982 19.098 42.982 42.978v252.042h0.527zM151.711 626.494c-7.959 0-14.857 6.366-14.857 14.858v26.53c0 40.858 27.057 76.407 64.731 76.407h91.802c7.954 0 14.855-6.367 14.855-14.858 0-7.956-6.368-14.858-14.855-14.858h-91.801c-22.816 0-35.018-25.468-35.018-47.222v-26.533c0-7.959-6.371-14.325-14.858-14.325v0 0zM146.402 576.085c-3.713 0-7.428 1.589-10.611 4.241-2.652 2.658-4.246 6.901-4.246 10.619 0 3.714 1.595 7.429 4.246 10.612 5.302 5.301 15.389 5.301 20.691 0 2.658-2.658 4.247-6.37 4.247-10.612 0-3.715-1.589-7.43-4.247-10.085-2.653-3.184-6.366-4.773-10.080-4.773v0 0zM989.557 507.635c0-56.246-45.635-101.881-101.879-101.881h-252.045c-56.246 0-101.879 45.634-101.879 101.881v252.043c0 56.245 45.633 101.882 101.879 101.882h252.044c56.244 0 101.879-45.636 101.879-101.882v-252.043h0.001zM930.656 759.677c0 23.881-19.099 42.983-42.978 42.983h-252.045c-23.877 0-42.983-19.103-42.983-42.983v-252.042c0-23.881 19.106-42.978 42.983-42.978h252.044c23.879 0 42.978 19.098 42.978 42.978v252.042h0.001zM489.714 8.321c0-56.243-45.635-101.878-101.881-101.878h-251.51c-56.245 0-101.881 45.635-101.881 101.878v252.045c0 56.246 45.635 101.881 101.881 101.881h251.51c56.245 0 101.881-45.634 101.881-101.881v-252.045zM431.342 260.365c0 23.881-19.099 42.983-42.978 42.983h-252.043c-23.879 0-42.982-19.103-42.982-42.983v-252.045c0-23.878 19.103-42.977 42.982-42.977h251.51c23.879 0 42.982 19.099 42.982 42.977v252.045h0.527zM989.557 8.321c0-56.243-45.635-101.878-101.879-101.878h-252.045c-56.246 0-101.879 45.635-101.879 101.878v252.045c0 56.246 45.633 101.881 101.879 101.881h252.044c56.244 0 101.879-45.634 101.879-101.881v-252.045h0.001zM930.656 260.365c0 23.881-19.099 42.983-42.978 42.983h-252.045c-23.877 0-42.983-19.103-42.983-42.983v-252.045c0-23.878 19.106-42.977 42.983-42.977h252.044c23.879 0 42.978 19.099 42.978 42.977v252.045h0.001z" />
<glyph unicode="&#xe6f1;" glyph-name="web-icon-" d="M857.344 413.536l-90.816 85.728v125.472c0 26.656-20.832 48.288-46.4 48.288s-46.4-21.664-46.4-48.288v-39.744l-150.112 142.88c-3.127 2.933-7.345 4.734-11.984 4.734s-8.857-1.801-11.994-4.743l0.010 0.009-332.992-314.336c-5.312-4.896-6.912-14.272-4.352-20.96 2.656-6.624 9.088-12.736 16.256-12.736h99.456v-203.808l-33.408-35.040c-11.228-11.18-18.176-26.651-18.176-43.744s6.948-32.564 18.173-43.742l0.002-0.002c11.744-11.744 27.296-18.144 43.872-18.144s32.16 6.4 43.872 18.144l1.856 1.952h393.376c0.019 0 0.042 0 0.064 0 9.722 0 17.609 7.854 17.664 17.563v306.821h100.128c7.232 0 13.536 6.048 16.224 12.736 2.624 6.784 0.928 16.16-4.32 20.96zM309.088 77.632c-5.211-5.073-12.336-8.201-20.192-8.201-7.84 0-14.952 3.115-20.167 8.176l0.007-0.007c-5.28 5.247-8.549 12.514-8.549 20.544s3.268 15.297 8.547 20.543l0.001 0.001 164.896 164.544-5.664 16.768c-3.359 9.61-5.299 20.688-5.299 32.22 0 7.875 0.905 15.538 2.616 22.892l-0.133-0.679c4.16 18.528 12.672 33.792 26.176 47.328 18.216 18.19 43.359 29.447 71.131 29.472h0.005c-13.664-13.952-21.12-31.648-21.12-49.952 0-18.688 6.080-36.736 20.16-50.784 14.080-13.984 33.824-20.832 52.48-20.832 18.304 0 35.2 7.488 48.96 20.896 0.001-0.163 0.002-0.356 0.002-0.549 0-54.61-44.27-98.88-98.88-98.88-0.338 0-0.676 0.002-1.013 0.005h0.052c-11.608 0.027-22.75 1.982-33.136 5.56l0.72-0.216-16.768 5.6-164.832-164.448zM721.792 418.24c-0.029 0-0.062 0-0.096 0-9.65 0-17.472-7.822-17.472-17.472 0 0 0 0 0 0v0-306.848h-333.152l111.712 109.76c13.056-4.096 26.592-6.144 40.288-6.144 0.129 0 0.282-0.001 0.435-0.001 36.814 0 70.14 14.933 94.251 39.071l0.001 0.001c23.957 24.192 38.758 57.488 38.758 94.241 0 20.363-4.544 39.664-12.672 56.946l0.346-0.818-2.784 6.048-4.448-4.992c-4.928-5.6-12.352-12.288-22.656-21.664-4.32-3.904-8.64-7.808-12.928-11.776-16.128-15.968-39.136-15.776-55.072 0-7.302 6.92-11.919 16.61-12.159 27.38l-0.001 0.044c0 9.856 4.352 19.616 12.224 27.424 36.032 36.128 35.488 38.432 35.136 40.128l-0.48 2.144-1.92 0.864c-16.553 7.791-35.952 12.342-56.412 12.352h-0.004c-0.148 0.001-0.323 0.001-0.499 0.001-36.764 0-70.039-14.935-94.090-39.069l-0.004-0.004c-24.273-24.12-39.297-57.524-39.297-94.437 0-14.389 2.283-28.245 6.506-41.225l-0.265 0.942-76-75.84 0.032 185.44c0 9.6-7.84 17.472-17.568 17.472h-74.112l284.192 265.152 284.288-265.12h-74.080z" />
<glyph unicode="&#xe70c;" glyph-name="jiahao2" horiz-adv-x="1109" d="M597.333 341.333v-426.667c0-0.002 0-0.004 0-0.007 0-23.564-19.103-42.667-42.667-42.667s-42.667 19.103-42.667 42.667c0 0.002 0 0.005 0 0.007v0 426.667h-426.667c-23.564 0-42.667 19.103-42.667 42.667s19.103 42.667 42.667 42.667h426.667v426.667c0.004 23.561 19.105 42.66 42.667 42.66s42.663-19.099 42.667-42.66v0-426.667h426.667c23.564 0 42.667-19.103 42.667-42.667s-19.103-42.667-42.667-42.667h-426.667z" />
<glyph unicode="&#xe726;" glyph-name="jiahao" d="M512-62.017c-119.648 0-232.129 46.368-316.737 130.56-84.641 84.255-131.263 196.256-131.263 315.455 0 119.168 46.624 231.2 131.232 315.424 84.608 84.192 197.088 130.56 316.737 130.56s232.129-46.368 316.704-130.56c84.672-84.224 131.263-196.256 131.263-315.392 0.033-119.199-46.592-231.233-131.263-315.455-84.544-84.192-197.025-130.592-316.673-130.592zM512 766.017c-102.624 0-199.072-39.743-271.583-111.937-72.481-72.128-112.417-168.063-112.417-270.080s39.903-197.952 112.384-270.047c72.512-72.192 168.96-111.937 271.583-111.937 102.593 0 199.072 39.743 271.583 111.937 72.481 72.161 112.417 168.063 112.384 270.080 0 102.016-39.903 197.919-112.384 270.016-72.479 72.192-168.958 111.968-271.551 111.968zM736.001 415.999h-192v192c0 17.665-14.336 32.001-32.001 32.001s-32.001-14.336-32.001-32.001v-192h-191.998c-17.665 0-32.001-14.336-32.001-32.001s14.336-32.001 32.001-32.001h192v-192c0-17.696 14.336-32.001 32.001-32.001s32.001 14.303 32.001 32.001v192.002h192c17.696 0 32.001 14.336 32.001 32.001s-14.307 31.999-32.003 31.999z" />
<glyph unicode="&#xe890;" glyph-name="ICON-" d="M61.814-55.059v878.118c0 4.882 3.818 8.857 8.527 8.857h712.634c4.709 0 8.544-3.975 8.544-8.857v-354.273h61.814v354.273c0 40.209-31.556 72.941-70.358 72.941h-712.634c-38.785 0-70.341-32.732-70.341-72.941v-878.118c0-40.209 31.556-72.941 70.341-72.941h398.958v64.084h-398.958c-4.709 0-8.527 3.975-8.527 8.857zM820.96 103.938h-64.541v99.090c0 16.931-14.493 30.636-32.373 30.636s-32.376-13.704-32.376-30.636v-129.726c0-16.936 14.496-30.636 32.376-30.636h96.914c17.88 0 32.373 13.7 32.373 30.636 0 16.932-14.493 30.636-32.373 30.636zM632.219 668.444h-372.29c-17.874 0-32.373-13.699-32.373-30.636 0-16.932 14.499-30.636 32.373-30.636h372.29c17.88 0 32.373 13.704 32.373 30.636 0 16.937-14.493 30.636-32.373 30.636zM664.592 478.105c0 16.937-14.493 30.636-32.373 30.636h-372.29c-17.874 0-32.373-13.699-32.373-30.636 0-16.932 14.499-30.636 32.373-30.636h372.29c17.88 0 32.373 13.704 32.373 30.636zM259.929 342.999c-17.874 0-32.373-13.704-32.373-30.636 0-16.937 14.499-30.636 32.373-30.636h129.271c17.88 0 32.373 13.699 32.373 30.636 0 16.932-14.493 30.636-32.373 30.636h-129.271zM767.999-62.916c-105.266 0-190.915 85.643-190.915 190.915 0 105.274 85.649 190.917 190.915 190.917 105.274 0 190.917-85.643 190.917-190.917 0-105.272-85.643-190.915-190.917-190.915zM767.999 384c-141.381 0-255.999-114.616-255.999-256.001 0-141.383 114.616-255.999 255.999-255.999 141.385 0 256.001 114.616 256.001 255.999 0 141.385-114.616 256.001-256.001 256.001z" />
<glyph unicode="&#xe891;" glyph-name="ICON-2" d="M213.333 355.556h597.333c117.821 0 213.333-95.513 213.333-213.333v-28.444c0-117.821-95.513-213.333-213.333-213.333h-597.333c-117.821 0-213.333 95.513-213.333 213.333v28.444c0 117.821 95.513 213.333 213.333 213.333zM227.556 298.667c-94.257 0-170.667-76.41-170.667-170.667s76.41-170.667 170.667-170.667h568.889c94.257 0 170.667 76.41 170.667 170.667s-76.41 170.667-170.667 170.667h-568.889zM227.556 184.889c31.419 0 56.889-25.47 56.889-56.889s-25.47-56.889-56.889-56.889c-31.419 0-56.889 25.47-56.889 56.889s25.47 56.889 56.889 56.889zM213.333 867.556h597.333c117.821 0 213.333-95.513 213.333-213.333v-28.444c0-117.821-95.513-213.333-213.333-213.333h-597.333c-117.821 0-213.333 95.513-213.333 213.333v28.444c0 117.821 95.513 213.333 213.333 213.333zM227.556 810.667c-94.257 0-170.667-76.41-170.667-170.667s76.41-170.667 170.667-170.667h568.889c94.257 0 170.667 76.41 170.667 170.667s-76.41 170.667-170.667 170.667h-568.889zM796.444 696.889c31.419 0 56.889-25.47 56.889-56.889s-25.47-56.889-56.889-56.889c-31.419 0-56.889 25.47-56.889 56.889s25.47 56.889 56.889 56.889z" />
<glyph unicode="&#xe892;" glyph-name="ICON-3" d="M833.352 62.647c-41.77-41.764-90.318-74.556-144.509-97.45-56.034-23.703-115.516-35.669-176.843-35.669s-120.921 11.966-176.843 35.669c-54.074 22.893-102.741 55.686-144.511 97.45-41.764 41.77-74.556 90.319-97.45 144.511-23.703 56.034-35.669 115.516-35.669 176.843s11.966 120.921 35.669 176.843c22.893 54.074 55.686 102.741 97.45 144.511 41.77 41.764 90.319 74.556 144.511 97.45 56.034 23.703 115.516 35.669 176.843 35.669s120.921-11.966 176.843-35.669c54.074-22.893 102.739-55.686 144.509-97.45 41.764-41.77 74.558-90.319 97.451-144.511 23.703-56.034 35.669-115.516 35.669-176.843s-11.966-120.921-35.669-176.843c-22.893-54.191-55.687-102.741-97.451-144.511zM512 896c-282.81 0-512-229.19-512-512s229.19-512 512-512c282.81 0 512 229.19 512 512s-229.19 512-512 512zM770.569 392.074v0c-11.445 11.218-29.793 11.116-41.111-0.23l-226.858-227.414-24.141-64.874h297.482c2.142 0 3.878 1.736 3.878 3.878v0c0 2.142-1.736 3.878-3.878 3.878h-276.701l44.369 16.558 227.175 227.464c11.191 11.205 11.18 29.361-0.026 40.552-0.063 0.063-0.127 0.126-0.19 0.188zM350.983 384l37.618 32.772v16.459h18.81l37.591 32.769h-56.401v62.852h106.989c9.063 0 16.41 7.347 16.41 16.41v0c0 9.063-7.347 16.41-16.41 16.41h-81.647l75.345 92.217c3.115 3.813 2.55 9.429-1.263 12.544-1.592 1.301-3.585 2.011-5.641 2.011v0c-11.896 0-23.162-5.344-30.689-14.556l-75.344-92.216h-13.147l-75.302 92.193c-7.536 9.226-18.819 14.579-30.732 14.579v0c-4.93 0-8.926-3.996-8.926-8.926 0-2.059 0.712-4.055 2.015-5.649l75.353-92.197h-81.647c-9.063 0-16.41-7.347-16.41-16.41v0c0-9.063 7.347-16.41 16.41-16.41h107.017v-62.852h-107.043c-9.049 0-16.385-7.336-16.385-16.385v0c0-9.049 7.336-16.385 16.385-16.385h107.043v-49.231zM770.858 653.871l-528.269-528.269c-4.794-4.794-4.794-12.566 0-17.36 0.002-0.002 0.004-0.004 0.007-0.007v0c4.802-4.795 12.581-4.792 17.38 0.007l528.242 528.241c4.799 4.799 4.802 12.578 0.007 17.381v0c-4.79 4.798-12.563 4.804-17.36 0.014-0.002-0.002-0.005-0.005-0.007-0.007z" />
<glyph unicode="&#xe893;" glyph-name="ICON-4" horiz-adv-x="910" d="M175.355 367.189c-10.798 0-22.998 11.179-22.998 22.016v6.656c0 8.405 3.486 22.016 22.998 22.016h313.854c10.798 0 21.935-11.008 21.935-22.016v-6.656c0-10.837-11.138-22.016-21.935-22.016h-313.854zM175.355 655.616c-19.342 0-22.275 14.507-22.275 22.912 0 18.005 11.648 29.568 22.275 29.568h212.169c10.798 0 20.915-12.245 20.915-23.253v-6.656c0-10.837-10.117-22.571-20.915-22.571h-212.169zM175.355 510.549c-10.798 0-22.998 12.245-22.998 23.083v6.656c0 10.837 12.030 22.571 22.998 22.571h450.397c10.798 0 22.998-11.733 22.998-22.571v-5.589c-6.972-12.757-12.881-24.107-29.8-24.107l-443.596-0.043zM806.379 383.287c-13.391 0-26.994 6.133-26.994 27.843v365.23c0 34.727-26.144 62.747-59.727 62.747h-604.923c-33.456 0-59.897-28.020-59.897-62.747v-786.102c0-34.727 26.314-63.983 59.897-63.983h348.543c13.391 0 26.824-13.194 26.824-27.137 0-13.9-13.391-27.137-26.824-27.137h-348.543c-67.039 0-113.928 55.687-113.928 118.257v786.102c0 62.57 53.478 118.787 113.928 118.787h605.093c67.039 0 113.758-56.216 113.758-118.787v-365.186c-0.213-17.739-7.184-27.888-27.207-27.888zM844.586 255.147c-41.892 41.977-98.774 65.391-157.969 65.024-59.197 0.376-116.082-23.039-157.969-65.024-41.823-42.046-65.151-99.137-64.786-158.549 0-60.331 22.998-116.608 64.786-158.549 41.892-41.977 98.774-65.391 157.969-65.024 59.197-0.376 116.082 23.039 157.969 65.024 41.823 42.046 65.151 99.137 64.786 158.549 0.28 59.396-23.035 116.455-64.786 158.549zM686.618-85.419c-98.241 0-181.307 83.371-181.307 181.973s83.065 181.973 181.307 181.973c48.249 0 93.523-18.517 127.659-51.925 34.744-34.247 54.164-81.173 53.818-130.048-0.17-98.773-83.235-181.973-181.477-181.973zM760.798 99.712c4.2-0.081 8.254 1.546 11.24 4.512s4.651 7.016 4.616 11.232c0.035 4.216-1.63 8.267-4.616 11.232s-7.040 4.592-11.24 4.512h-44.593l51.735 52.267c4.889 4.907 3.656 14.165-2.976 20.821-3.324 3.659-7.953 5.852-12.881 6.101-2.849 0.088-5.611-0.99-7.652-2.987l-59.387-59.605-59.387 59.605c-2.044 1.992-4.804 3.070-7.652 2.987-4.902-0.205-9.528-2.335-12.881-5.931-6.632-6.656-7.822-16.085-2.976-20.992l51.735-52.267h-41.618c-4.2 0.081-8.254-1.546-11.24-4.512s-4.651-7.016-4.616-11.232c0-9.088 7.142-15.744 15.856-15.744h56.241v-31.445h-56.071c-4.2 0.081-8.254-1.546-11.24-4.512s-4.651-7.016-4.616-11.232c0-9.088 7.142-15.744 15.856-15.744h56.071v-37.077c0-9.429 8.885-17.109 18.279-17.109s18.279 7.68 18.279 17.109v37.077h55.731c4.2-0.081 8.254 1.546 11.24 4.512s4.651 7.016 4.616 11.232c0.035 4.216-1.63 8.267-4.616 11.232s-7.040 4.592-11.24 4.512h-55.731v31.445h55.731zM516.619 392.533c-0.592-11.191 5.019-21.796 14.589-27.57s21.533-5.774 31.103 0c9.569 5.774 15.181 16.379 14.589 27.57-0.851 16.083-14.093 28.686-30.14 28.686s-29.288-12.603-30.14-28.686z" />
<glyph unicode="&#xe894;" glyph-name="ICON-5" d="M1019.333 253.828c0 0.886 0 0.886 0 0l-75.162 326.44c-20.098 85.812-88.267 132.698-141.579 132.698h-86.515c-16.606 0-30.589-14.155-30.589-30.962v-327.323c0-16.809 13.983-30.964 30.589-30.964h121.473c16.606 0 30.589 14.155 30.589 30.964s-13.983 30.962-30.589 30.962h-90.012v265.398h55.927c19.227 0 66.421-21.232 82.152-84.927l74.287-325.554c7.865-41.579 1.748-65.466-19.227-73.428-15.731-5.308-24.473-23.001-19.227-38.924 4.37-13.27 16.606-21.232 28.84-21.232 3.497 0 6.992 0.884 9.614 1.769 25.344 9.731 80.403 40.695 59.428 145.083zM94.902 720.028h509.336c16.542 0 30.473 14.216 30.473 31.096 0 16.882-13.931 31.098-30.473 31.098h-509.336c-54.852 0-94.902-36.429-94.902-87.961v-500.215c0-33.763 17.412-64.859 46.146-82.629 5.223-2.665 10.447-4.441 15.671-4.441 10.447 0 20.025 5.33 26.12 15.104 8.706 15.104 4.352 33.761-10.449 42.647-10.447 6.22-16.542 17.769-16.542 29.32v501.103c0 23.102 26.119 24.878 33.956 24.878zM567.008 383.998c0-12.369 6.45-23.803 16.926-29.985 10.474-6.188 23.379-6.188 33.853 0 10.474 6.182 16.924 17.616 16.924 29.985 0 12.377-6.45 23.805-16.924 29.993-10.474 6.182-23.379 6.182-33.853 0-10.475-6.188-16.926-17.616-16.926-29.993zM567.008 505.197c0-12.371 6.45-23.805 16.926-29.987 10.474-6.187 23.379-6.187 33.853 0 10.474 6.182 16.924 17.617 16.924 29.987s-6.45 23.803-16.924 29.992c-10.474 6.182-23.379 6.182-33.853 0-10.475-6.188-16.926-17.621-16.926-29.992zM567.008 626.396c0-12.37 6.45-23.805 16.926-29.987 10.474-6.188 23.379-6.188 33.853 0 10.474 6.182 16.924 17.616 16.924 29.987 0 12.369-6.45 23.803-16.924 29.991-10.474 6.182-23.379 6.182-33.853 0-10.475-6.188-16.926-17.623-16.926-29.991zM751.265 49.057c-42.591 0-76.491 36.163-76.491 79.558s34.768 79.558 76.491 79.558c41.716 0 76.485-36.163 76.485-79.558s-33.899-79.558-76.485-79.558zM332.306 119.575c-4.347-39.78-36.508-70.518-76.491-70.518-42.593 0-76.491 36.163-76.491 79.558s34.768 79.558 76.491 79.558c40.852 0 74.751-33.451 76.491-75.943-0.869-2.712-0.869-4.519-0.869-7.233 0-1.808 0-3.616 0.869-5.423zM751.265 271.459c-66.061 0-121.69-48.82-134.73-114.817h-225.993c-13.038 65.093-68.668 114.817-134.727 114.817-75.622 0-137.336-64.189-137.336-142.844s61.714-142.837 137.336-142.837c64.321 0 118.213 46.101 132.989 108.482h229.472c14.776-62.382 68.668-108.482 132.989-108.482 75.616 0 137.33 64.183 137.33 142.837s-61.714 142.844-137.33 142.844z" />
<glyph unicode="&#xe895;" glyph-name="ICON-" d="M963.765 660.317v111.746c0 12.314-13.493 22.349-30.118 22.349h-843.294c-16.625 0-30.118-10.035-30.118-22.349v-111.746h-60.235v111.746c0 36.966 40.538 67.048 90.353 67.048h843.294c49.815 0 90.353-30.082 90.353-67.048v-111.746h-60.235zM830.578-128h-637.156c-43.911 0-79.644-7.664-79.644 52.825v678.603h53.096v-621.714c0-20.151 11.894-36.571 26.548-36.571h637.156c14.655 0 26.548 16.421 26.548 36.571v621.714h53.096v-678.603c0-60.489-35.734-52.825-79.644-52.825v0zM632.471 384h-240.941c-16.655 0-30.118 16.384-30.118 36.571s13.463 36.571 30.118 36.571h240.941c16.655 0 30.118-16.384 30.118-36.571s-13.463-36.571-30.118-36.571zM0 676.571h1024v-36.571c0-20.198-16.085-36.571-36.445-36.571h-951.111c-20.128 0-36.445 16.233-36.445 36.571v36.571z" />
<glyph unicode="&#xe900;" glyph-name="uniE900" d="M492.698 0h-349.867v768h640v-281.6c0-11.782 9.551-21.333 21.333-21.333s21.333 9.551 21.333 21.333v0 302.933c0 11.782-9.551 21.333-21.333 21.333h-682.667c-11.782 0-21.333-9.551-21.333-21.333v0-810.667c0-11.782 9.551-21.333 21.333-21.333h371.2c11.782 0 21.333 9.551 21.333 21.333s-9.551 21.333-21.333 21.333v0zM714.556 648.533h-503.467c-11.782 0-21.333-9.551-21.333-21.333s9.551-21.333 21.333-21.333h503.467c11.782 0 21.333 9.551 21.333 21.333s-9.551 21.333-21.333 21.333v0zM735.889 465.067c0 11.782-9.551 21.333-21.333 21.333h-503.467c-11.782 0-21.333-9.551-21.333-21.333s9.551-21.333 21.333-21.333v0h503.467c11.782 0 21.333 9.551 21.333 21.333v0zM211.098 324.267c-11.782 0-21.333-9.551-21.333-21.333s9.551-21.333 21.333-21.333v0h341.333c11.782 0 21.333 9.551 21.333 21.333s-9.551 21.333-21.333 21.333v0h-341.333zM923.554 342.187c-0.969 5.747-4.113 10.623-8.54 13.841l-0.062 0.043-103.979 74.769c-3.454 2.508-7.778 4.013-12.454 4.013-7.105 0-13.399-3.473-17.276-8.815l-0.043-0.062-196.787-273.604c-1.701-2.335-2.956-5.109-3.577-8.114l-0.024-0.138-30.66-152.32c-0.266-1.264-0.419-2.717-0.419-4.205 0-11.782 9.551-21.333 21.333-21.333 3.921 0 7.594 1.058 10.751 2.903l-0.101-0.055 134.63 77.542c2.665 1.551 4.887 3.569 6.622 5.963l0.043 0.062 196.796 273.596c3.319 4.608 4.659 10.325 3.746 15.915zM691.072 81.331l-89.779-51.712 20.446 101.564 181.649 252.561 69.333-49.86-181.649-252.553z" />
<glyph unicode="&#xe901;" glyph-name="uniE901" d="M316.18 542.113c0-22.936 20.682-39.535 49.268-39.535h289.311c28.479 0 49.251 16.599 49.251 39.535 0 45.352-29.982 83.156-89.060 112.527v29.363c0 67.432-46.031 120.261-104.863 120.261-58.796 0-104.864-52.741-104.864-120.173v-29.363c-59.149-29.459-89.042-67.263-89.042-112.615zM430.784 626.745l10.589 4.861v52.485c0 47.88 29.54 84.022 68.713 84.022 39.192 0 68.73-36.141 68.73-84.022v-52.485l10.607-4.861c52.732-23.988 78.453-51.698 78.611-84.376-0.778-1.043-5.727-3.642-13.205-3.642h-289.294c-7.478 0-12.428 2.519-13.028 3.297-0.177 33.111 25.526 60.732 78.276 84.721zM677.51 260.845v6.080c0 7.566-6.17 13.824-13.806 13.824h-307.29c-7.566 0-13.806-6.17-13.806-13.824v-6.080c0-7.567 6.152-13.825 13.806-13.825h307.29c7.637 0.001 13.806 6.259 13.806 13.825zM356.414 185.945c-7.566 0-13.806-6.17-13.806-13.806v-6.168c0-7.567 6.152-13.825 13.806-13.825h173.311c7.566 0 13.824 6.17 13.824 13.825v6.168c0 7.566-6.168 13.806-13.824 13.806h-173.311zM677.51 361.82c0 7.557-6.17 13.815-13.806 13.815h-307.29c-7.566 0-13.806-6.17-13.806-13.815v-6.17c0-7.557 6.152-13.816 13.806-13.816h307.29c7.549 0 13.806 6.17 13.806 13.816v6.17zM745.374 715.804h-98.181c2.333-10.165 3.995-20.594 3.995-31.713v-4.428h94.186c29.963 0 54.288-24.333 54.288-54.306v-563.226c0-29.982-24.325-54.323-54.288-54.323h-470.542c-29.981 0-54.306 24.341-54.306 54.323v563.138c0 29.973 24.325 54.306 54.306 54.306h94.186v4.428c0 11.119 1.626 21.549 3.995 31.713h-98.181c-49.869 0-90.527-40.57-90.527-90.536v-563.050c0-49.868 40.57-90.527 90.527-90.527h470.613c49.868 0 90.527 40.553 90.527 90.527v563.139c-0.088 49.957-40.659 90.535-90.598 90.535z" />
<glyph unicode="&#xe902;" glyph-name="uniE902" d="M512 829c-245.8 0-445-199.2-445-445s199.2-445 445-445 445 199.2 445 445-199.2 445-445 445zM791.3 104.7c-36.3-36.3-78.5-64.8-125.6-84.7-48.7-20.6-100.4-31-153.7-31s-105.1 10.4-153.7 31c-47 19.9-89.3 48.4-125.6 84.7s-64.8 78.5-84.7 125.6c-20.6 48.7-31 100.4-31 153.7s10.4 105.1 31 153.7c19.9 47 48.4 89.3 84.7 125.6s78.5 64.8 125.6 84.7c48.7 20.6 100.4 31 153.7 31s105.1-10.4 153.7-31c47-19.9 89.3-48.4 125.6-84.7s64.8-78.5 84.7-125.6c20.6-48.7 31-100.4 31-153.7s-10.4-105.1-31-153.7c-19.9-47.1-48.4-89.3-84.7-125.6zM706.5 543.1l-159.1-159.1 159.1-159.1-35.4-35.4-159.1 159.1-159.1-159.1-35.4 35.4 159.1 159.1-159.1 159.1 35.4 35.4 159.1-159.1 159.1 159.1 35.4-35.4z" />
<glyph unicode="&#xe903;" glyph-name="uniE903" d="M229.427 679.888l-83.703-0.21v60.417l83.703 0.238zM307.142 740.334h571.135v-60.654h-571.135v60.654zM229.427 353.879l-83.703-0.206v60.415l83.703 0.238zM307.142 414.327h571.135v-60.652h-571.135v60.652zM229.427 27.874l-83.703-0.208v60.417l83.703 0.234zM307.142 88.318h571.135v-60.651h-571.135v60.651z" />
<glyph unicode="&#xe904;" glyph-name="uniE904" d="M123.7-29.6c-7.7 0-14.9 3.4-19.8 9.5-4.9 6-6.8 13.8-5.2 21.3l49.1 236c2.1 9.9 6.9 18.8 14 25.9l530.6 530.6c19.4 19.4 53.2 19.4 72.6 0l156.5-156.5c9.7-9.7 15.1-22.6 15.1-36.3s-5.4-26.6-15.1-36.3l-530.6-530.6c-7.1-7.1-16.1-11.9-25.9-14l-236-49.1c-1.8-0.4-3.6-0.5-5.3-0.5zM728.7 776c-4.9 0-9.6-1.9-13.1-5.4l-530.6-530.7c-2.6-2.6-4.3-5.8-5.1-9.4l-46.9-225.2 225.3 46.8c3.6 0.7 6.8 2.5 9.4 5.1l530.7 530.7c3.5 3.5 5.4 8.2 5.4 13.1 0 5-1.9 9.6-5.4 13.1l-156.6 156.5c-3.5 3.5-8.1 5.4-13.1 5.4zM832.7 482.6c-4.2 0-8.4 1.6-11.6 4.8l-205.9 205.9c-6.4 6.4-6.4 16.8 0 23.2s16.8 6.4 23.2 0l205.9-205.9c6.4-6.4 6.4-16.8 0-23.2-3.2-3.2-7.4-4.8-11.6-4.8zM744.9-49.5c-12.6 0-25.2 4.8-34.8 14.4l-205.1 205.1c-6.4 6.4-6.4 16.8 0 23.2s16.8 6.4 23.2 0l205.1-205.2c6.4-6.4 16.8-6.4 23.2 0l151.7 151.7c3.1 3.1 4.8 7.2 4.8 11.6s-1.7 8.5-4.8 11.6l-204.1 204.1c-6.4 6.4-6.4 16.8 0 23.2s16.8 6.4 23.2 0l204.1-204.1c9.3-9.3 14.4-21.6 14.4-34.8 0-13.1-5.1-25.5-14.4-34.8l-151.7-151.7c-9.6-9.5-22.2-14.3-34.8-14.3zM308.9 372.9c-4.2 0-8.4 1.6-11.6 4.8l-204.7 204.6c-9.3 9.3-14.4 21.6-14.4 34.8s5.1 25.5 14.4 34.8l151.7 151.7c18.6 18.6 51 18.6 69.6 0l205.2-205.2c6.4-6.4 6.4-16.8 0-23.2s-16.8-6.4-23.2 0l-205.2 205.2c-6.2 6.2-16.9 6.2-23.2 0l-151.7-151.7c-6.4-6.4-6.4-16.8 0-23.2l204.7-204.7c6.4-6.4 6.4-16.8 0-23.2-3.2-3.1-7.4-4.7-11.6-4.7zM176.4 505.3c-4.2 0-8.4 1.6-11.6 4.8-6.4 6.4-6.4 16.8 0 23.2l96.9 96.9c6.4 6.4 16.8 6.4 23.2 0s6.4-16.8 0-23.2l-96.9-96.9c-3.2-3.2-7.4-4.8-11.6-4.8zM271.9 409.9c-4.2 0-8.4 1.6-11.6 4.8-6.4 6.4-6.4 16.8 0 23.2l96.9 96.9c6.4 6.4 16.8 6.4 23.2 0s6.4-16.8 0-23.2l-96.9-96.9c-3.3-3.2-7.5-4.8-11.6-4.8zM558.1 123.7c-4.2 0-8.4 1.6-11.6 4.8-6.4 6.4-6.4 16.8 0 23.2l96.9 96.9c6.4 6.4 16.8 6.4 23.2 0s6.4-16.8 0-23.2l-96.9-96.9c-3.2-3.2-7.4-4.8-11.6-4.8zM653.5 28.2c-4.2 0-8.4 1.6-11.6 4.8-6.4 6.4-6.4 16.8 0 23.2l96.8 96.9c6.4 6.4 16.8 6.4 23.2 0s6.4-16.8 0-23.2l-96.8-96.9c-3.2-3.2-7.4-4.8-11.6-4.8z" />
<glyph unicode="&#xe905;" glyph-name="uniE905" d="M486.4 265.6c-19.2-19.2-48-19.2-67.2-3.2l-137.6 131.2-32-35.2 137.6-131.2c38.4-35.2 96-35.2 134.4 3.2l281.6 297.6-35.2 32-281.6-294.4zM512 844.8c-252.8 0-460.8-204.8-460.8-460.8s204.8-460.8 460.8-460.8 460.8 204.8 460.8 460.8-208 460.8-460.8 460.8zM512-28.8c-227.2 0-412.8 185.6-412.8 412.8s185.6 412.8 412.8 412.8 412.8-185.6 412.8-412.8-185.6-412.8-412.8-412.8z" />
<glyph unicode="&#xe906;" glyph-name="arr" d="M524.058 260.996v0c1.837 1.060 3.813 1.837 5.437 3.462 0.285 0.354 0.493 0.635 0.778 0.918 0.354 0.423 0.918 0.564 1.27 0.919l190.612 197.743c5.083 5.225 7.627 12.007 7.627 18.787 0 7.063-2.824 14.196-8.333 19.492-10.805 10.382-27.969 10.099-38.348-0.706l-171.898-178.393-169.422 179.099c-10.311 10.875-27.473 11.372-38.348 1.060s-11.372-27.473-1.060-38.348l188.775-199.58c8.261-8.757 20.974-10.382 31.285-5.438 0.564 0.209 1.060 0.705 1.624 0.986v0z" />
<glyph unicode="&#xf014d;" glyph-name="shouhouwuyou" d="M880.061 274.509v262.522c0 39.491-21.044 76.634-54.891 96.946l-253.103 151.847c-35.873 21.54-80.449 21.54-116.333 0l-253.104-151.847c-33.856-20.312-54.89-57.455-54.89-96.946v-309.955c0-39.47 21.033-76.613 54.89-96.936l253.104-151.869c17.963-10.765 38.069-16.152 58.187-16.152 20.085 0 40.181 5.366 58.080 16.109l255.818 152.213-0.193 0.313c6.13 3.653 10.441 10.075 10.441 17.726 0 11.617-9.406 21.013-20.99 21.013-3.944 0-7.424-1.379-10.571-3.255l-0.173 0.291-255.883-152.256c-22.554-13.533-50.557-13.533-73.11 0l-253.093 151.869c-21.293 12.77-34.514 36.13-34.514 60.935v309.955c0 24.826 13.221 48.166 34.514 60.936l253.093 151.857c22.553 13.534 50.556 13.534 73.11 0l253.115-151.857c21.282-12.77 34.493-36.109 34.493-60.936v-262.531l-0.011-0.044c0-11.594 9.417-20.991 21.013-20.991 11.594 0 21.012 9.397 21.012 20.991 0 0.021-0.010 0.032-0.010 0.053zM354.005 490.212l-32.154-252.133c-2.090-17.856 3.557-35.796 15.495-49.224 11.939-13.425 29.105-21.129 47.069-21.129h262.467c17.962 0 35.116 7.704 47.055 21.129 11.951 13.427 17.598 31.367 15.473 49.405l-32.089 251.735c-3.728 31.712-30.602 55.643-62.538 55.643h-198.258c-31.939 0.002-58.812-23.929-62.519-55.426zM416.524 503.638h198.257c10.634 0 19.589-7.962 20.87-18.727l32.069-251.735c0.721-6.055-1.122-11.874-5.15-16.422-4.041-4.536-9.623-7.035-15.689-7.035h-262.468c-6.078 0-11.66 2.499-15.69 7.035-4.040 4.548-5.884 10.367-5.184 16.196l32.144 252.155c1.252 10.571 10.205 18.533 20.841 18.533zM513.018 607.309c26.431 0 48.586-17.575 56.107-41.561h43.167c-8.34 47.379-49.557 83.542-99.274 83.542-49.718 0-90.923-36.162-99.264-83.542h43.167c7.499 23.985 29.676 41.561 56.097 41.561zM467.19 376.036c13.76 0 24.913 11.153 24.913 24.913s-11.152 24.912-24.913 24.912c-13.749 0-24.913-11.152-24.913-24.912s11.164-24.913 24.913-24.913zM560.601 376.036c13.772 0 24.923 11.153 24.923 24.913s-11.151 24.912-24.923 24.912c-13.75 0-24.901-11.152-24.901-24.912s11.151-24.913 24.901-24.913zM445.163 348.805c0-53.694 26.659-85.727 71.355-85.727 32.057 0 70.278 14.869 70.278 85.727h-42.003c0-36.981-9.515-43.747-28.275-43.747-8.792 0-29.373 0-29.373 43.747h-41.982z" />
</font>
</defs>
</svg>
