<?xml version="1.0" standalone="no"?><!DOCTYPE svg PUBLIC "-//W3C//DTD SVG 1.1//EN" "http://www.w3.org/Graphics/SVG/1.1/DTD/svg11.dtd"><svg t="1509350977136" class="icon" style="" viewBox="0 0 1024 1024" version="1.1" xmlns="http://www.w3.org/2000/svg" p-id="2459" xmlns:xlink="http://www.w3.org/1999/xlink" width="12" height="12"><defs><style type="text/css"></style></defs><path d="M524.05791041 635.00417202v0c1.83729926-1.06037051 3.81303744-1.83729927 5.43730784-3.46216639 0.28463519-0.35445137 0.493487-0.63490952 0.77752548-0.91835127 0.35445137-0.42307411 0.91835127-0.56449662 1.26981904-0.91894799l190.6124884-197.7426894c5.0834532-5.22547243 7.6266716-12.00659253 7.6266716-18.78651919 0-7.0627717-2.82427327-14.19595628-8.33259074-19.49243833-10.80479951-10.38172541-27.96883846-10.09888038-38.34817698 0.70591914l-171.89757555 178.39286701-169.42178645-179.09878615c-10.31131251-10.87521241-27.47296457-11.37168301-38.34817699-1.06037051-10.87580913 10.31190923-11.37168301 27.47296457-1.0603705 38.34817699l188.77518915 199.57998866c8.2609844 8.757455 20.97409279 10.38232213 31.28540529 5.43790456 0.5638999-0.20885182 1.06037051-0.70532242 1.62427041-0.98637729v0zM524.05791041 635.00417202z" fill="#b8b8b8" p-id="2460"></path></svg>