<?xml version="1.0" standalone="no"?><!DOCTYPE svg PUBLIC "-//W3C//DTD SVG 1.1//EN" "http://www.w3.org/Graphics/SVG/1.1/DTD/svg11.dtd"><svg t="1508731184070" class="icon" style="" viewBox="0 0 1024 1024" version="1.1" xmlns="http://www.w3.org/2000/svg" p-id="997" xmlns:xlink="http://www.w3.org/1999/xlink" width="200" height="200"><defs><style type="text/css"></style></defs><path d="M511.564 4.641c-280.637 0-508.118 227.501-508.118 508.119 0 280.635 227.483 508.097 508.118 508.097 280.618 0 508.119-227.462 508.119-508.097 0-280.617-227.502-508.119-508.119-508.119zM725.953 687.057l-38.896 38.897-175.050-175.057-175.050 175.057-38.914-38.897 175.062-175.062-175.043-175.054 38.896-38.896 175.045 175.053 175.053-175.053 38.896 38.896-175.050 175.058 175.051 175.057z" p-id="998" fill="#ed0103"></path><path d="M511.564 1021.441c-68.677 0-135.298-13.449-198.013-39.971-60.577-25.619-114.979-62.295-161.696-109.009-46.717-46.715-83.394-101.116-109.017-161.69-26.525-62.714-39.974-129.333-39.974-198.010 0-68.673 13.45-135.291 39.974-198.006 25.62-60.576 62.299-114.979 109.017-161.697 46.717-46.718 101.12-83.398 161.696-109.021 62.716-26.527 129.337-39.977 198.013-39.977 68.672 0 135.29 13.45 198.006 39.977 60.575 25.622 114.978 62.301 161.697 109.021 46.718 46.718 83.398 101.121 109.021 161.697 26.526 62.715 39.977 129.333 39.977 198.006 0 68.675-13.451 135.295-39.977 198.010-25.622 60.574-62.303 114.973-109.021 161.69-46.718 46.714-101.121 83.389-161.697 109.009-62.715 26.523-129.333 39.971-198.006 39.971zM511.564 5.223c-279.856 0-507.536 227.681-507.536 507.538 0 279.844 227.681 507.515 507.536 507.515 279.857 0 507.538-227.67 507.538-507.515 0-279.856-227.681-507.538-507.538-507.538zM687.057 726.778l-175.049-175.057-175.050 175.057-39.737-39.719 175.062-175.062-175.043-175.054 39.718-39.718 175.045 175.053 175.053-175.053 39.718 39.718-175.050 175.058 175.051 175.057-39.719 39.719zM298.868 687.057l38.091 38.074 175.050-175.056 175.049 175.056 38.073-38.074-175.050-175.057 175.051-175.058-38.073-38.073-175.054 175.053-175.045-175.053-38.073 38.073 175.045 175.053-175.063 175.063z" p-id="999" fill="#ed0103"></path></svg>