<?xml version="1.0" standalone="no"?><!DOCTYPE svg PUBLIC "-//W3C//DTD SVG 1.1//EN" "http://www.w3.org/Graphics/SVG/1.1/DTD/svg11.dtd"><svg t="1508738968024" class="icon" style="" viewBox="0 0 1024 1024" version="1.1" xmlns="http://www.w3.org/2000/svg" p-id="966" xmlns:xlink="http://www.w3.org/1999/xlink" width="200" height="200"><defs><style type="text/css"></style></defs><path d="M834.114279 960.16002H189.884698c-25.601074 0-56.019875-27.226085-56.019874-56.019875V427.970188c0-20.727067 28.037567-56.019875 56.019874-56.019874h56.019875V287.920502c0-130.806161 112.712061-222.791156 252.089435-224.079498 137.081075 1.288343 252.089435 91.116207 252.089435 224.079498v56.019874h-56.019874V287.920502c0-109.098767-82.657558-167.443593-196.069561-168.059624-116.073622 0.672312-196.069561 60.753689-196.069561 168.059624v84.029812h532.189832c30.699186 0 56.019875 24.844851 56.019874 56.019874v476.169957c0 27.729551-30.4188 56.019875-56.019874 56.019875z m0-532.189832H189.884698v476.169957h644.229581V427.970188z m-308.10931 56.019875c77.335343 0 140.049686 62.714344 140.049686 140.049686 0 67.756173-48.120974 124.251885-112.039749 137.221268v86.859253c0 15.461133-12.548804 28.009937-28.009937 28.009938s-28.009937-12.548804-28.009938-28.009938V761.261017c-63.918775-12.968359-112.039749-69.465095-112.039749-137.221268 0-77.335343 62.714344-140.049686 140.049687-140.049686z m0 224.079498c46.412053 0 84.029812-37.617759 84.029811-84.029812s-37.617759-84.029812-84.029811-84.029812-84.029812 37.617759-84.029812 84.029812 37.616736 84.029812 84.029812 84.029812z" fill="#d1d1d1" p-id="967"></path></svg>