<?xml version="1.0" standalone="no"?><!DOCTYPE svg PUBLIC "-//W3C//DTD SVG 1.1//EN" "http://www.w3.org/Graphics/SVG/1.1/DTD/svg11.dtd"><svg t="1513238084977" class="icon" style="" viewBox="0 0 1024 1024" version="1.1" xmlns="http://www.w3.org/2000/svg" p-id="6376" xmlns:xlink="http://www.w3.org/1999/xlink" width="16" height="16"><defs><style type="text/css"></style></defs><path d="M981.333333 406.421333c0-17.728-18.037333-24.832-31.605333-27.2l-283.178667-43.168L539.637333 66.954667C534.56 55.690667 524.981333 42.666667 511.978667 42.666667c-12.970667 0-22.549333 13.024-27.605334 24.288l-126.933333 269.088-283.2 43.168C60.138667 381.589333 42.666667 388.693333 42.666667 406.421333c0 10.656 7.338667 20.693333 14.112 28.394667l205.333333 209.376-48.512 295.754667c-0.565333 4.16-1.152 7.648-1.152 11.786666 0 15.36 7.36 29.6 23.68 29.6 7.936 0 15.274667-2.986667 22.602667-7.114666l253.248-139.594667 253.28 139.594667c6.784 4.128 14.677333 7.114667 22.570666 7.114666 16.362667 0 23.146667-13.653333 23.146667-29.6 0-4.149333 0-7.637333-0.576-11.786666l-48.522667-295.754667 204.768-209.376c7.36-7.701333 14.688-17.738667 14.688-28.394667z" fill="#d4d4d4" p-id="6377"></path></svg>