<?xml version="1.0" standalone="no"?><!DOCTYPE svg PUBLIC "-//W3C//DTD SVG 1.1//EN" "http://www.w3.org/Graphics/SVG/1.1/DTD/svg11.dtd"><svg t="1508731343060" class="icon" style="" viewBox="0 0 1024 1024" version="1.1" xmlns="http://www.w3.org/2000/svg" p-id="1927" xmlns:xlink="http://www.w3.org/1999/xlink" width="200" height="200"><defs><style type="text/css"></style></defs><path d="M809.262264 371.647415c0-168.269401-135.674029-304.646442-303.05827-304.646442-167.389358 0-303.05827 136.378064-303.05827 304.646442 0 97.15883 45.396933 183.480848 115.838262 239.255129-126.314871 64.72821-215.22483 193.607486-225.072105 343.378581l45.329395 0c10.630105-140.255371 100.079346-264.426415 224.913493-313.793776 39.664372 19.176758 95.087659 35.805484 142.05025 35.805484s91.258447-11.047614 130.922818-30.222325l31.093159-18.334577 25.179472-16.83441C763.869425 555.128263 809.262264 468.806245 809.262264 371.647415L809.262264 371.647415zM506.203994 626.663506c-140.125411 0-253.703189-114.174366-253.703189-255.036557 0-140.824329 113.577778-255.018138 253.703189-255.018138 140.120294 0 253.721609 114.194832 253.721609 255.018138C759.925602 512.490164 651.953496 626.663506 506.203994 626.663506L506.203994 626.663506zM762.590292 655.655817l-0.221034 0.322341c-4.949732-4.805446-11.552104-7.833409-18.937305-7.833409-15.246239 0-27.579125 5.900384-27.579125 21.405519 0 10.706853 6.085602 19.678178 14.728446 24.407899l-0.183172 0.275269c82.868359 60.258409 124.660184 151.499459 132.898823 260.048711l55.19509 0C910.568555 833.701886 851.322196 726.338646 762.590292 655.655817L762.590292 655.655817zM762.590292 655.655817" p-id="1928" fill="#bfbfbf"></path></svg>